<?xml version="1.0" standalone="no"?>
<!DOCTYPE svg PUBLIC "-//W3C//DTD SVG 1.1//EN" "http://www.w3.org/Graphics/SVG/1.1/DTD/svg11.dtd" >
<svg xmlns="http://www.w3.org/2000/svg">
<metadata></metadata>
<defs>
<font id="campanileregular" horiz-adv-x="882" >
<font-face units-per-em="2048" ascent="1638" descent="-410" />
<missing-glyph horiz-adv-x="688" />
<glyph horiz-adv-x="2048" />
<glyph horiz-adv-x="2048" />
<glyph horiz-adv-x="682" />
<glyph horiz-adv-x="778" d="M70 1434q106 -51 149 -86q25 -23 52.5 -54.5t56.5 -76.5h112q90 164 293 219q-236 0 -354 -125q-74 74 -150 98q-29 8 -159 25z" />
<glyph horiz-adv-x="382" d="M70 1352q0 -53 38.5 -91t92.5 -38q53 0 92 37.5t39 91.5q0 53 -39 93t-92 40t-92 -40t-39 -93zM127 1352q0 29 22.5 50t51.5 21t51 -21.5t22 -49.5q0 -29 -22.5 -51.5t-50.5 -22.5q-29 0 -51.5 22.5t-22.5 51.5z" />
<glyph unicode="&#xd;" horiz-adv-x="499" d="M70 8q0 -8 45 -8h288q45 0 46 8q0 10 -37 21q-70 20 -70 118v932h-227q-45 0 -45 -8q0 -12 36 -18q68 -23 68 -119v-787q0 -100 -68 -118q-37 -6 -36 -21z" />
<glyph horiz-adv-x="954" d="M70 8q0 -8 45 -8h288q45 0 46 8q0 10 -37 21q-70 20 -70 118v836h113v96h-113v209q0 205 84 205q86 0 86 -111q0 -72 -61 -127q14 -10 45 -10q49 0 87 45t38 125q0 88 -57.5 144.5t-145.5 56.5q-244 0 -244 -352v-185h-104v-96h104v-836q0 -100 -68 -118q-37 -6 -36 -21z M524 8q0 -8 45 -8h291q45 0 45 8q0 4 -37 21q-72 23 -71 118v932h-228q-45 0 -45 -8t35 -18q72 -19 72 -119v-787q0 -100 -72 -118q-35 -16 -35 -21z" />
<glyph horiz-adv-x="837" d="M70 8q0 -8 45 -8h630q45 0 46 8q0 4 -37 21q-72 23 -72 118v1461h-197q-14 0 -35.5 4t-31.5 4q-244 0 -244 -352v-185h-104v-96h104v-836q0 -100 -68 -118q-37 -6 -36 -21zM342 147v836h113v96h-113v209q0 205 84 205q86 0 86 -111q0 -72 -61 -127q14 -10 45 -10 q16 0 20 2v-1100q0 -100 -70 -118q-8 0 -18 -11q-4 10 -16 11q-70 20 -70 118z" />
<glyph d="M70 8q0 -8 45 -8h639q70 0 80 10q-111 285 -111 443q0 94 31 178q14 -6 26 -6q55 0 56 57q0 25 -19.5 43t-38.5 18q-76 0 -131 -137q-10 -29 -17 -71.5t-9 -102.5q-4 -70 -8.5 -115t-8.5 -67q-27 -119 -139 -119q-29 0 -47.5 7t-29.5 28.5t-15 59.5t-4 100v223l112 31 l-22 84l-90 -25v864q0 100 71 119q35 16 35 18q0 10 -45 11h-315q-45 0 -45 -11q0 -12 36 -18q68 -18 68 -119v-473q0 -86 -13.5 -113.5t-64.5 -27.5q-4 0 -18 6q-8 2 -8 -4q0 -57 51 -90q53 -31 53 -90v-125l-104 -27l22 -84l82 23v-351q0 -100 -68 -118q-37 -6 -36 -21z " />
<glyph horiz-adv-x="499" d="M55 596l23 -84l96 27v-392q0 -100 -68 -118q-37 -6 -36 -21q0 -8 45 -8h288q45 0 46 8q0 10 -37 21q-70 20 -70 118v437l125 32l-23 84l-102 -28v936h-227q-45 0 -45 -11q0 -12 36 -18q68 -18 68 -119v-833z" />
<glyph horiz-adv-x="1007" d="M68 0h882q-102 246 -102 418q0 49 10 96q20 2 40 5t26 34q4 25 -11.5 48.5t-50.5 23.5q-84 0 -123 -181q-31 -139 -61 -190q-49 -92 -137 -92h-121q-41 0 -58 28q0 35 21 82l584 1379h-770q86 -231 86 -391q0 -25 -2 -47.5t-7 -43.5q-12 4 -22 5q-51 0 -51 -46 q0 -57 59 -57t90 105q10 51 19.5 101t19.5 101q39 135 148 135h90q37 0 53 -16q-4 -14 -6 -23.5t-4 -15.5l-146 -346q-55 -131 -63 -145q-49 -78 -125 -78h-14q-6 0 -15 2q-2 -4 -2 -19q0 -33 16.5 -45t32.5 -26q25 -18 25 -37q0 -8 -2 -14zM193 2030q207 -55 292 -220h113 q29 45 55.5 78t53.5 54q47 39 149 86q-133 -16 -160 -25q-72 -20 -149 -98q-78 82 -178 108q-70 16 -176 17z" />
<glyph horiz-adv-x="722" d="M61 1436q201 -61 291 -219h111q29 45 55.5 76.5t52.5 52.5q45 37 152 88q-133 -14 -162 -25q-74 -25 -147 -98q-119 125 -353 125zM68 0h591v203q0 45 -8 45q-14 0 -20 -37q-23 -68 -119 -68h-205l369 936h-533v-205q0 -45 11 -45q4 0 14 37q18 72 119 72h168z" />
<glyph unicode=" "  horiz-adv-x="688" />
<glyph unicode="&#x09;" horiz-adv-x="688" />
<glyph unicode="&#xa0;" horiz-adv-x="688" />
<glyph unicode="!" horiz-adv-x="458" d="M70 1649q72 -49 100 -172q4 -29 8 -77t6 -116l23 -883h65l21 883q2 129 16 193q25 123 101 172q-6 8 -27 6h-289q-18 2 -24 -6zM129 164q0 -164 109 -164q106 0 106 164q0 160 -106 160q-109 0 -109 -160z" />
<glyph unicode="&#x22;" horiz-adv-x="471" d="M68 1528q0 4 3 -35t11 -119l37 -434h47l37 428q4 59 7 94t3 49q0 104 -31 127q-37 25 -80 0q-35 -23 -34 -110zM279 1524l12 -150l37 -434h49l35 428q4 63 7 98t3 45q0 104 -31 127q-37 25 -78 0q-35 -23 -34 -114z" />
<glyph unicode="#" horiz-adv-x="1622" d="M70 469h342l-162 -469h129l162 469h360l-162 -469h127l160 469h350l35 104h-348l127 373h348l37 105h-348l159 475h-126l-162 -475h-359l162 475h-125l-162 -475h-346l-35 -105h345l-132 -373h-340zM575 573l130 373h360l-131 -373h-359z" />
<glyph unicode="$" horiz-adv-x="825" d="M70 350q0 -145 86 -239q88 -98 231 -107v-211h98v213q66 12 119 46t92 86t59.5 121t20.5 149q0 242 -291 520v506q20 -12 38 -32t31 -41.5t20.5 -44t7.5 -40.5q0 -98 -45 -197q16 -10 32 -10q49 0 95 64q49 63 49 143q0 113 -58 201q-64 100 -170 120v74h-98v-69 q-68 -8 -124 -37t-96 -74t-61.5 -105.5t-21.5 -130.5q0 -145 86 -264q16 -20 69.5 -76.5t147.5 -150.5v-588q-166 31 -166 234q0 76 62 172q-16 6 -33 6q-63 0 -119 -64q-61 -72 -61 -174zM248 1282q0 139 139 162v-424q-139 135 -139 262zM485 184v482q137 -156 138 -246 q0 -82 -40.5 -146.5t-97.5 -89.5z" />
<glyph unicode="%" horiz-adv-x="907" d="M70 1497q0 -37 14 -70.5t40 -59.5t59.5 -41t70.5 -15q39 0 73.5 14t60.5 40t40 59.5t14 72.5q0 8 -1 17.5t-3 19.5q66 -33 152 -33q29 0 47 6l-563 -1497h139l641 1657q-197 -90 -248 -90q-59 0 -182 53q-121 55 -170 56q-37 0 -70.5 -14.5t-59.5 -40t-40 -60.5t-14 -74z M143 1497q0 47 33 80t78 33q47 0 80 -33t33 -80t-33 -80t-80 -33q-45 0 -78 34t-33 79zM483 201q0 -39 14.5 -74t40 -60.5t59.5 -40t73 -14.5t73.5 14.5t60 40t40 60.5t14.5 74t-14.5 72.5t-40 59t-60 40t-73.5 14.5q-37 0 -71 -14.5t-59.5 -40t-41 -59t-15.5 -72.5z M557 201q0 47 34 79.5t79 32.5q47 0 79.5 -32.5t32.5 -79.5t-32.5 -80t-79.5 -33q-45 0 -79 34t-34 79z" />
<glyph unicode="&#x26;" horiz-adv-x="1013" d="M70 428q0 -215 100 -340q88 -111 213 -111q88 0 149 56q41 41 101 149q20 -51 31 -71q14 -31 14 -52q0 -25 -25 -30q-37 -10 -37 -21q0 -8 46 -8h258q47 0 47 8q0 14 -39 23q-37 8 -54.5 29.5t-42.5 82.5q-57 141 -88.5 221t-40.5 101q0 424 107 424q10 -20 22.5 -42 t34.5 -22q49 0 49 54q0 72 -86 71q-145 0 -208 -272l-101 274q199 184 199 412q0 125 -64.5 199.5t-169.5 74.5q-104 0 -172 -69q-76 -76 -75 -207q0 -135 75 -361q-244 -272 -243 -573zM236 408q0 231 147 426l168 -472q0 -78 -57 -143q-60 -65 -117 -65q-29 0 -53.5 20.5 t-45 54t-31.5 79.5t-11 100zM403 1376q0 123 82 123q72 0 72 -127q0 -135 -92 -252q-61 168 -62 256z" />
<glyph unicode="'" horiz-adv-x="356" d="M55 1065l19 -23q231 133 231 410q0 195 -131 195q-104 0 -104 -158q0 -104 114 -182q-16 -86 -43 -136q-20 -37 -86 -106z" />
<glyph unicode="(" horiz-adv-x="405" d="M70 586q0 -483 249 -965l13 12q-20 57 -39 112.5t-37 111.5q-47 141 -68 282q-14 96 -21 208t-7 241q0 324 51 565q18 86 55 206t90 277l-14 13q-272 -494 -272 -1063z" />
<glyph unicode=")" horiz-adv-x="405" d="M70 1636q53 -156 90 -275.5t53 -207.5q51 -238 51 -565q0 -129 -7 -240.5t-21 -208.5q-23 -145 -68 -282q-20 -55 -38.5 -110.5t-39.5 -113.5l16 -12q250 487 250 965q0 567 -274 1063z" />
<glyph unicode="*" horiz-adv-x="888" d="M70 1182q2 -47 43 -86q57 -53 125 -54q82 0 178 70q139 -176 139 -242q0 -63 -25 -75q-59 80 -96 79q-94 0 -94 -88q0 -39 33 -68.5t71 -29.5q57 0 117 62q59 63 60 122q0 141 -121 299q145 115 194 115q47 0 58 -22q-63 -45 -64 -74q0 -78 72 -78q31 0 54.5 26.5 t23.5 57.5q0 45 -50 92q-51 47 -96 47q-121 0 -246 -100q-129 156 -129 231q0 55 31 78q12 -14 24.5 -26.5l24.5 -24.5q35 -29 70 -29q84 10 76 90q0 45 -41 74q-35 23 -74 23q-59 -4 -109 -54q-68 -72 -67 -155q0 -111 117 -271q-96 -78 -156 -77q-41 0 -59 24 q20 20 41.5 44t19.5 52q-4 68 -72 60q-37 0 -56 -30t-17 -62z" />
<glyph unicode="+" horiz-adv-x="630" d="M70 489q37 37 47 41q12 4 57 5h105v-371q0 -47 -5 -60q-4 -10 -38 -49h184q-16 18 -24.5 30.5t-11.5 23t-4 23.5t-1 36v367h94q49 0 62 -5q8 -4 47 -41v158q-18 -16 -28.5 -24.5t-22 -11.5t-24.5 -4t-38 -1h-90v363q0 23 1 37t3 22q8 18 37 51h-184q35 -35 39 -47t4 -59 v-367h-99q-41 0 -61 4q-16 6 -49 37v-158z" />
<glyph unicode="," horiz-adv-x="354" d="M43 -252l14 -22q233 131 234 405q0 195 -129 195q-109 0 -109 -158q0 -106 117 -176q-12 -82 -41 -137q-20 -37 -86 -107z" />
<glyph unicode="-" horiz-adv-x="522" d="M39 565h403v86h-403v-86z" />
<glyph unicode="." horiz-adv-x="356" d="M61 166q0 -86 34 -132t85 -46t85 46t34 132q0 176 -119 176t-119 -176z" />
<glyph unicode="/" horiz-adv-x="1249" d="M70 -432h133l995 2083h-135z" />
<glyph unicode="0" d="M68 772q0 -797 348 -797q346 0 346 797q0 793 -346 793q-348 0 -348 -793zM248 772q0 651 168 651q166 0 166 -651q0 -657 -166 -657q-168 0 -168 657z" />
<glyph unicode="1" d="M201 1229q82 0 102 -10q39 -19 39 -101v-971q0 -98 -70 -118q-37 -6 -36 -21q0 -8 45 -8h299q45 0 45 8q0 4 -37 21q-72 18 -72 118v1399q-53 -61 -93 -104t-63 -66q-29 -29 -159 -147z" />
<glyph unicode="2" d="M104 150q0 -33 3.5 -71t7.5 -79h596v250q0 47 -9 47q-12 0 -20 -39q-8 -35 -57 -74q-47 -37 -86 -37h-236q-2 14 -2 29v29q0 213 172 385l78 78q264 264 264 501q0 162 -88 265q-86 104 -231 104q-150 0 -246 -96q-92 -96 -92 -232q0 -139 63 -202q57 -57 146 -50 q-61 104 -62 177q0 111 51.5 176t122.5 65q82 0 125 -66.5t43 -160.5q0 -156 -209 -358l-61 -60q-272 -260 -273 -581z" />
<glyph unicode="3" d="M61 340q0 -174 92.5 -269.5t254.5 -95.5q168 0 272 144q100 137 100 348q0 166 -63 260q-55 80 -170 129q211 125 211 358q0 168 -90 265q-86 86 -228 86q-129 0 -204.5 -79t-75.5 -208q0 -76 53 -145q51 -68 109 -68q33 0 55 31q-68 70 -68 159q0 76 42 121t100 45 q70 0 104 -67q27 -51 27 -125q0 -135 -52.5 -217t-150.5 -82q-57 0 -127 43v-252q72 41 129 41q104 0 158.5 -83t54.5 -220q0 -317 -186 -318q-88 0 -138 66q-43 57 -43 153q0 119 86 224q-25 8 -55 8q-84 0 -141 -76q-55 -74 -56 -176z" />
<glyph unicode="4" d="M8 381h473v-234q0 -100 -71 -118q-37 -16 -37 -21q0 -8 47 -8h301q45 0 45 8t-33 21q-72 18 -71 118v232h34q76 0 95 -72q10 -35 18 -35q10 0 10 45v291q0 47 -10 47q-4 0 -18 -37q-12 -43 -29 -57t-66 -14h-34v846q0 98 71 116q33 12 33 21q0 8 -45 8h-356q-45 0 -46 -8 q0 -14 37 -21q43 -12 43 -71q0 -27 -10 -54l-381 -856v-147zM199 537l282 649v-649h-282z" />
<glyph unicode="5" d="M70 322q0 -143 90 -246q92 -98 217 -99q166 0 274 158q106 158 107 412q0 217 -83 342t-237 125q-53 0 -108 -15l39 371h331l72 232q-86 -61 -164 -62q-14 0 -51 2t-63 2h-267l-96 -799q119 129 225 129q225 4 226 -337q0 -193 -60 -299q-51 -94 -141 -95q-74 0 -123 74 q-43 68 -43 150q2 100 94 219q-37 14 -71 14q-90 0 -134 -98q-35 -76 -34 -180z" />
<glyph unicode="6" d="M70 723q0 -748 368 -748q168 0 256 138q84 133 84 354q0 203 -98 324q-90 111 -219 110q-88 0 -140.5 -45t-52.5 -108q0 -70 41 -86q49 84 131 83q80 0 121 -67q47 -82 47 -272q0 -113 -51 -189q-49 -76 -115 -76q-102 0 -148 128t-46 419q0 418 67 588q53 133 160 133 q63 0 103 -54.5t40 -133.5q0 -123 -88 -213q14 -33 60 -33q82 0 129 74q41 66 41 159q0 170 -88 267q-84 90 -207 90q-170 0 -275 -189q-121 -223 -120 -653z" />
<glyph unicode="7" d="M88 1243q37 88 76 117q33 23 82 22h39q14 -2 24 -2h21h209l-142 -260q-233 -430 -233 -835q0 -141 69 -230q63 -80 154 -80q117 0 137 82q-180 -8 -180 271q0 164 66 401q59 215 141 379l215 430h-678v-295z" />
<glyph unicode="8" d="M33 408q0 -197 102 -316q109 -121 297 -121q213 0 307 168q66 121 66 285q0 123 -74 238q-66 102 -225 233l-55 45q-111 88 -148 147q-39 59 -35 144q2 197 158 196q90 0 129 -45q41 -53 41 -182q0 -162 -139 -209q12 -53 98 -53q88 0 143 70q63 78 64 227q0 156 -89 243 t-249 87q-311 0 -311 -361q0 -209 252 -407l51 -41q217 -174 217 -348q0 -109 -47 -191q-57 -100 -170 -100q-104 0 -165 76.5t-61 218.5q0 211 199 268q-10 74 -100 74q-104 0 -183 -97q-74 -96 -73 -249z" />
<glyph unicode="9" d="M61 1071q0 -205 99 -323q88 -111 219 -111q88 0 139 45t51 109q0 70 -41 86q-47 -84 -129 -84t-120 67q-47 82 -48 273q0 55 13.5 104t36 84t52 55.5t64.5 20.5q102 0 147.5 -128t45.5 -419q0 -420 -68 -588q-53 -133 -160 -133q-63 0 -103 54.5t-40 133.5q0 123 88 213 q-12 33 -59 33q-84 0 -129 -74q-41 -66 -41 -159q0 -166 90 -267q82 -88 205 -88q172 0 276 187q123 221 123 653q0 750 -371 750q-166 0 -256 -140q-84 -131 -84 -354z" />
<glyph unicode=":" horiz-adv-x="331" d="M70 166q0 -78 29.5 -122t74.5 -44q109 0 109 166q0 160 -109 160q-104 0 -104 -160zM70 666q0 -78 29.5 -122t74.5 -44q109 0 109 166q0 159 -109 159q-104 0 -104 -159z" />
<glyph unicode=";" horiz-adv-x="356" d="M55 -252l19 -22q231 133 231 405q0 195 -131 195q-104 0 -104 -158q0 -104 114 -176q-14 -84 -43 -137q-20 -37 -86 -107zM86 666q0 -166 109 -166q45 0 75.5 44t30.5 122q0 159 -106 159q-109 0 -109 -159z" />
<glyph unicode="&#x3c;" horiz-adv-x="1138" d="M70 594l1017 -430v166l-823 338l823 338v165l-1017 -430v-147z" />
<glyph unicode="=" horiz-adv-x="1744" d="M70 340h1626v127h-1626v-127zM70 870h1626v136h-1626v-136z" />
<glyph unicode="&#x3e;" horiz-adv-x="1138" d="M70 164l1017 430v147l-1017 430v-165l821 -338l-821 -338v-166z" />
<glyph unicode="?" horiz-adv-x="614" d="M70 1313q0 -129 44 -209t124 -80q33 0 55 29q-66 45 -82 80q-14 31 -14 165q0 92 25.5 151.5t64.5 63.5q51 6 85 -54t34 -152q-4 -223 -127 -451l-35 -63q-78 -143 -78 -244q0 -63 35 -109.5t78 -46.5q59 0 69 25l-6 8q-33 2 -55 39q-20 27 -21 57q0 72 76 197l47 78 q174 285 174 477q0 147 -57 254q-72 127 -189 127q-248 0 -247 -342zM184 166q0 -78 31 -122t76 -44q47 0 77.5 44t30.5 122q1 160 -108 160q-106 0 -107 -160z" />
<glyph unicode="@" horiz-adv-x="1886" d="M68 707q0 -377 266 -613q260 -225 647 -225q377 0 725 233l-49 74q-346 -207 -684 -207q-326 0 -543 197q-231 209 -231 541q0 403 254 636q238 219 604 220q281 0 473 -158q205 -168 205 -455q0 -207 -95 -350q-96 -141 -219 -141q-143 0 -143 112q0 55 29 166l129 473 h-164l-49 -172q-18 88 -76 140q-70 66 -168 65q-186 0 -330 -186q-145 -186 -145 -416q0 -162 100 -248q82 -74 213 -74q172 5 301 187q51 -184 242 -184q178 0 311 145q164 180 164 514q0 283 -213 473q-221 197 -567 197q-477 0 -752 -305q-236 -262 -235 -639zM688 608 q0 176 94 340q102 176 228 176q63 0 109 -49t46 -127q0 -186 -100 -348q-104 -170 -231 -170q-59 0 -102.5 46t-43.5 132z" />
<glyph unicode="A" horiz-adv-x="1077" d="M45 12q-2 -1 -2 -3q0 -3 8 -5q12 -4 23 -4h368q14 0 23.5 5t5.5 7q-102 49 -102 140q0 76 49 258q10 2 19 2q56 0 67 -64q-33 -59 -33 -88q0 -23 19.5 -46.5t44.5 -23.5q37 0 59 26t22 56q0 29 -30 90q31 41 82 41q43 -133 43 -245q0 -61 -15 -82q-12 -20 -80 -58 q-2 0 -2 -2q0 -16 27 -16h360q39 0 39 10l-2 2q-76 45 -96 76q-23 35 -37 125l-192 1206q-8 47 -8 88q0 53 18 84q12 20 37 31q18 8 18 14q0 14 -39 15h-342q-39 0 -39 -15q0 -4 20.5 -14t33.5 -31q18 -31 18 -84q0 -45 -18 -139l-50 -262q-29 -145 -51 -182 q-25 -41 -78 -41q-12 0 -26 6q-6 4 -10 -4q-6 -6 -4 -19.5t10 -27t17 -25.5t20 -18q49 -35 49 -62l-3 -15q-3 -16 -10 -48l-71 -379q-10 -59 -20.5 -98t-20.5 -60q-33 -70 -119 -121zM446 629l107 606q1 2 2 2l2 -2q2 -4 2 -12l86 -605q-63 -53 -94 -81q-80 76 -105 92z" />
<glyph unicode="B" horiz-adv-x="966" d="M115 0h309q266 0 385 119q104 106 104 319q0 270 -200 465q147 197 147 361q0 203 -117 305q-93 82 -249 82h-379q-45 0 -45 -11q0 -12 36 -18q68 -18 68 -119v-473q0 -86 -13.5 -113.5t-64.5 -27.5q-4 0 -18 6q-8 2 -8 -4q0 -57 51 -90q53 -31 53 -90v-564 q0 -100 -68 -118q-36 -6 -36 -20q0 -9 45 -9zM369 297v1087q0 121 114 121q199 0 199 -270q0 -150 -182 -416l-37 -53q-84 -121 -84 -170q0 -129 106 -129q56 0 56 55q0 18 -16.5 39t-28.5 21q-6 0 -18.5 -2t-16.5 -2q-12 0 -12 16q0 31 32 78q33 57 86 100 q154 -154 154 -340q0 -280 -219 -280h-2q-72 0 -99 26q-32 30 -32 114v5z" />
<glyph unicode="C" horiz-adv-x="923" d="M70 786q0 -809 379 -809q176 0 268 125q84 115 84 306q0 139 -58 221q-63 94 -186 94q-63 0 -63 -21l11 -10t26.5 -25.5t33 -35t29.5 -41.5q35 -66 35 -150q0 -117 -47 -194q-53 -84 -136 -84q-88 0 -139 135q-55 143 -55 405q0 344 76 584q70 223 155 223q41 0 68 -35.5 t27 -89.5q0 -66 -33 -161q-10 -29 -20.5 -55.5t-20.5 -55.5l-119 -332q-47 -135 -47 -245q0 -68 28.5 -112t65.5 -44q76 0 76 76q0 55 -76 55q-18 0 -18 35q0 53 37 174q35 106 45 123l325 686q16 29 29.5 54t23.5 48q-4 -2 -17 -7t-36 -15q-37 -16 -47 -17q-33 0 -131 39 q-96 39 -158 39q-182 0 -297 -231q-118 -238 -118 -645v-7z" />
<glyph unicode="D" horiz-adv-x="962" d="M115 0h389q227 0 325 240q84 203 84 608q0 420 -120 627q-104 176 -285 176h-393q-45 0 -45 -11q0 -12 36 -18q68 -18 68 -119v-473q0 -86 -13.5 -113.5t-64.5 -27.5q-4 0 -18 6q-8 2 -8 -4q0 -57 51 -90q53 -31 53 -90v-564q0 -100 -68 -118q-36 -6 -36 -20q0 -9 45 -9z M369 385v1061q0 43 18.5 58.5t67.5 15.5q256 0 256 -680q0 -397 -72 -559q-59 -129 -184 -129q-68 0 -82 92q-2 10 -3 46t-1 95z" />
<glyph unicode="E" horiz-adv-x="919" d="M115 0h755q-92 309 -92 461q0 47 10 92q20 -4 25 -4q49 0 49 51q0 55 -57 55q-84 0 -119 -133q-14 -63 -27.5 -124.5t-27.5 -125.5q-47 -133 -160 -133q-59 0 -80.5 34t-21.5 126v461h57q96 0 119 -68q6 -37 18 -37q10 0 10 45v289q0 45 -10 45q-12 0 -18 -37 q-20 -69 -116 -69h-3h-57v551q14 26 71 26h4q119 0 172 -116q8 -16 22.5 -69.5t37.5 -148.5q27 -116 81 -116h1q65 0 65 55v2q0 55 -70 55h-5q-2 15 -2 32q0 144 104 452h-735q-45 0 -45 -11q0 -12 36 -18q68 -18 68 -119v-473q0 -86 -13.5 -113.5t-64.5 -27.5q-4 0 -18 6 q-8 2 -8 -4q0 -57 51 -90q53 -31 53 -90v-564q0 -100 -68 -118q-36 -6 -36 -20q0 -9 45 -9z" />
<glyph unicode="F" horiz-adv-x="878" d="M115 0h315q45 0 45 8q0 4 -35 21q-72 18 -71 118v613h57q96 0 119 -68q6 -37 18 -37q10 0 10 45v289q0 45 -10 45q-12 0 -18 -37q-20 -69 -116 -69h-3h-57v551q14 26 71 26h4q119 0 172 -116q8 -16 22.5 -69.5t37.5 -148.5q27 -116 81 -116h1q65 0 65 55v2q0 55 -70 55 h-5q-2 15 -2 32q0 144 104 452h-735q-45 0 -45 -11q0 -12 36 -18q68 -18 68 -119v-473q0 -86 -13.5 -113.5t-64.5 -27.5q-4 0 -18 6q-8 2 -8 -4q0 -57 51 -90q53 -31 53 -90v-564q0 -100 -68 -118q-36 -6 -36 -20q0 -9 45 -9z" />
<glyph unicode="G" horiz-adv-x="956" d="M68 786q0 -809 378 -809q84 0 140 27q61 29 125 29q23 0 108 -39q10 8 -4 57q-14 41 -14 187v317q0 96 71 119q37 14 37 20q0 8 -45 8h-307q-45 0 -45 -8q0 -6 37 -20q72 -23 72 -119v-219q0 -63 -46 -115q-53 -59 -131 -59q-88 0 -139 135q-55 143 -55 405q0 344 76 584 q70 223 155 223q41 0 67.5 -35.5t26.5 -89.5q0 -66 -32 -161q-10 -29 -20.5 -55.5t-20.5 -55.5l-119 -332q-47 -135 -47 -245q0 -68 28.5 -112t65.5 -44q76 0 76 76q0 55 -76 55q-18 0 -18 35q0 53 37 174q35 106 45 123l329 692q14 29 26.5 52.5t22.5 43.5q-4 -2 -17 -7 t-36 -15q-37 -16 -47 -17q-33 0 -131 39q-96 39 -158 39q-182 0 -297 -231q-118 -238 -118 -645v-7z" />
<glyph unicode="H" horiz-adv-x="1048" d="M115 0h315q45 0 45 8q0 4 -35 21q-72 18 -71 118v652q47 -4 57 -11q35 -20 74 -118q-33 -35 -33 -72q0 -72 72 -72q27 0 45 29q14 20 14 39q2 20 -39 76q12 72 49 96l90 33v-656q0 -94 -71 -116q-37 -16 -37 -21q0 -6 45 -6h317q45 0 45 6q0 10 -36 21q-70 20 -70 116 v1360q0 98 70 119q36 8 36 17v1q0 10 -45 11h-317q-45 0 -45 -11q0 -4 37 -18q72 -23 71 -119v-512l-80 -45q-23 -10 -44 -28.5t-44 -40.5q-106 89 -161 124v502q0 100 71 119q35 16 35 18q0 10 -45 11h-315q-45 0 -45 -11q0 -12 36 -18q68 -18 68 -119v-473 q0 -86 -13.5 -113.5t-64.5 -27.5q-4 0 -18 6q-8 2 -8 -4q0 -57 51 -90q53 -31 53 -90v-564q0 -100 -68 -118q-36 -6 -36 -20q0 -9 45 -9z" />
<glyph unicode="I" horiz-adv-x="526" d="M115 0h315q45 0 45 8q0 4 -35 21q-72 18 -71 118v1356q0 100 71 119q35 16 35 18q0 10 -45 11h-315q-45 0 -45 -11q0 -12 36 -18q68 -18 68 -119v-473q0 -86 -13.5 -113.5t-64.5 -27.5q-4 0 -18 6q-8 2 -8 -4q0 -57 51 -90q53 -31 53 -90v-564q0 -100 -68 -118 q-36 -6 -36 -20q0 -9 45 -9z" />
<glyph unicode="J" horiz-adv-x="841" d="M70 299q0 -147 88 -236q88 -86 215 -86q164 0 245 119q70 100 70 262v1145q0 98 70 119q37 6 37 18q0 10 -45 11h-318q-45 0 -45 -11q0 -4 37 -18q72 -23 72 -119v-465q0 -78 -7 -96q-16 -43 -71 -43l-21 4q-10 4 -10 -2q0 -57 53.5 -92t53.5 -90v-359q0 -94 -36 -145 t-91 -51q-154 0 -154 227q0 84 18.5 170t18.5 137q0 145 -94 146q-66 0 -66 -58q0 -68 92 -69q6 -12 6 -29q0 -25 -59 -153.5t-59 -235.5z" />
<glyph unicode="K" horiz-adv-x="1062" d="M115 0h315q45 0 45 8q0 4 -35 21q-72 18 -71 118v1356q0 100 71 119q35 16 35 18q0 10 -45 11h-315q-45 0 -45 -11q0 -12 36 -18q68 -18 68 -119v-473q0 -86 -13.5 -113.5t-64.5 -27.5q-4 0 -18 6q-8 2 -8 -4q0 -57 51 -90q53 -31 53 -90v-564q0 -100 -68 -118 q-36 -6 -36 -20q0 -9 45 -9zM389 457q0 -139 86 -140q33 0 51.5 22.5t18.5 43.5q0 55 -60 55q-8 0 -20 -4q-18 12 -19 62q1 69 56 196l131 -387q39 -111 39 -180q0 -70 -39 -96q-4 -6 -20.5 -12.5t-16.5 -8.5q0 -8 45 -8h348q45 0 45 8q0 10 -37 21q-72 23 -116 157 l-258 789l127 311q68 170 143 254q53 59 104 78q41 12 41 10q0 23 -37 23h-380q-20 0 -21 -11q0 -2 23.5 -13t38.5 -32q23 -33 22 -82q0 -57 -27 -135l-219 -673q-49 -152 -49 -248z" />
<glyph unicode="L" d="M115 0h639q70 0 80 10q-111 285 -111 443q0 94 31 178q14 -6 26 -6q55 0 56 57q0 25 -19.5 43t-38.5 18q-76 0 -131 -137q-10 -29 -17 -71.5t-9 -102.5q-4 -70 -8.5 -115t-8.5 -67q-27 -119 -139 -119q-29 0 -47.5 7t-29.5 28.5t-15 59.5t-4 100v1177q0 100 71 119 q35 16 35 18q0 10 -45 11h-315q-45 0 -45 -11q0 -12 36 -18q68 -18 68 -119v-473q0 -86 -13.5 -113.5t-64.5 -27.5q-4 0 -18 6q-8 2 -8 -4q0 -57 51 -90q53 -31 53 -90v-564q0 -100 -68 -118q-36 -6 -36 -20q0 -9 45 -9z" />
<glyph unicode="M" horiz-adv-x="1255" d="M115 0h297q47 0 47 8q0 4 -37 21q-72 18 -72 118v1123l256 -1270h74l242 1305v-1158q0 -100 -68 -118q-37 -6 -37 -21q0 -8 45 -8h297q47 0 47 8q0 4 -37 21q-72 18 -71 118v1356q0 100 71 119q37 14 37 18q0 10 -47 11h-319q-76 0 -78 -13q47 -47 47 -71q0 -2 -10 -60 l-152 -770l-160 752q-4 20 -4 33q0 92 62 116q-10 12 -51 13h-379q-45 0 -45 -11q0 -12 36 -18q68 -18 68 -119v-473q0 -86 -13.5 -113.5t-64.5 -27.5q-4 0 -18 6q-8 2 -8 -4q0 -57 51 -90q53 -31 53 -90v-564q0 -100 -68 -118q-36 -6 -36 -20q0 -9 45 -9z" />
<glyph unicode="N" horiz-adv-x="1062" d="M70 891q0 -55 53 -90q53 -31 53 -90v-564q0 -100 -67 -118q-37 -6 -37 -21q0 -8 45 -8h299q45 0 45 8q0 4 -37 21q-70 18 -70 118v1125l412 -1088q47 -127 80 -170q39 -57 102 -57q68 0 68 70q0 50 -47 50q-15 0 -35 -5q-10 25 -17.5 44t-9.5 36q-2 10 -2 41v86v1224 q0 100 70 119q37 6 37 18q0 10 -45 11h-299q-45 0 -45 -11q0 -4 36 -18q72 -23 72 -119v-694l-344 842h-270q-45 0 -45 -11q0 -12 37 -18q68 -18 67 -119v-473q0 -106 -24 -127q-14 -14 -56 -14q-4 0 -18 6q-8 2 -8 -4z" />
<glyph unicode="O" horiz-adv-x="878" d="M70 825q0 -375 94 -602q100 -246 285 -246q184 0 286 246q94 227 94 602q0 377 -94 598q-102 246 -286 246t-285 -246q-94 -221 -94 -598zM262 825q0 354 41 506q40 148 146 148t145 -150q41 -152 41 -504q0 -356 -43 -506q-39 -149 -142 -149h-1q-104 0 -146 152 q-41 147 -41 503z" />
<glyph unicode="P" horiz-adv-x="974" d="M115 0h315q45 0 45 8q0 4 -35 21q-71 18 -71 118v308q51 -45 75 -45q23 0 45.5 16t22.5 39q0 59 -82 86q35 113 139 197l43 34q311 252 312 492q0 184 -133 287q-125 90 -332 90h-344q-45 0 -45 -11q0 -12 36 -18q68 -18 68 -119v-473q0 -86 -13.5 -113.5t-64.5 -27.5 q-4 0 -18 6q-8 2 -8 -4q0 -57 51 -90q53 -31 53 -90v-564q0 -100 -68 -118q-36 -6 -36 -20q0 -9 45 -9zM369 639v700q0 104 16 142.5t59 38.5h86q84 0 138 -68q53 -76 53 -209q0 -115 -76 -233q-31 -51 -151 -191q-96 -112 -125 -180z" />
<glyph unicode="Q" horiz-adv-x="878" d="M68 825q0 -365 88 -589q94 -242 272 -259q-2 -16 -3 -27t-1 -18q0 -141 61.5 -212.5t165.5 -71.5q76 0 127 63q45 57 45 123q0 20 -6 37q-18 39 -26 41q-10 0 -16.5 -16.5t-8.5 -18.5q-46 -65 -98 -65h-2q-113 0 -125 186q139 55 217 289q69 212 69 529v9q0 377 -94 598 q-102 246 -287 246q-184 0 -284 -246q-94 -221 -94 -598zM260 813q0 356 41 504q41 145 145 145q102 0 143.5 -147.5t41.5 -501.5q0 -526 -103 -623q-18 219 -139 220q-25 0 -46 -20.5t-21 -51.5q0 -57 51 -57q21 0 37 18q25 -10 44 -46t19 -65q0 -30 -25 -30h-2 q-106 0 -145 147q-41 152 -41 508z" />
<glyph unicode="R" horiz-adv-x="1085" d="M115 0h315q45 0 45 8q0 4 -35 21q-72 18 -71 118v1174q0 201 69 201h150q160 0 160 -287q0 -135 -95 -279q-45 -57 -89 -112.5t-89 -110.5q-94 -125 -94 -209q0 -114 83 -114h1q20 0 40.5 16t20.5 47q0 51 -77 62q0 74 118 178l148 -713h286q33 0 35 8l-57 29 q-59 29 -72 49q-31 94 -43 160l-133 604q213 207 213 440q0 199 -110 285q-96 76 -304 76h-415q-45 0 -45 -11q0 -12 36 -18q68 -18 68 -119v-473q0 -86 -13.5 -113.5t-64.5 -27.5q-4 0 -18 6q-8 2 -8 -4q0 -57 51 -90q53 -31 53 -90v-564q0 -100 -68 -118q-36 -6 -36 -20 q0 -9 45 -9z" />
<glyph unicode="S" horiz-adv-x="944" d="M70 10q49 20 110 21q57 0 161.5 -27t162.5 -27q172 0 282 136q104 131 105 325q0 158 -72 271q-63 100 -262 270q27 80 43 126t23 60l202 439q-78 4 -186 32q-106 33 -170 33q-137 0 -238 -110q-98 -107 -98 -257v-12q4 -229 293 -485q-55 -197 -55 -266 q0 -74 37.5 -125.5t93.5 -51.5q72 0 78 64q2 25 -14.5 43t-39.5 18q-27 0 -65 -18q-16 4 -17 59q0 55 17 131q18 74 41 91q205 -172 205 -334q0 -141 -63.5 -221t-164.5 -80q-180 0 -180 303v31q0 96 -35 149q-29 47 -71 47q-51 0 -52 -55q0 -59 74 -62q2 -10 2 -20v-19 q0 -137 -127 -407zM319 1323q0 92 42 145.5t112 53.5q131 -1 131 -136q0 -100 -106 -356q-178 154 -179 293z" />
<glyph unicode="T" horiz-adv-x="1130" d="M47 1651q127 -344 127 -496v-20t-2 -19q-10 -23 -33 -22q-59 0 -59 -47q0 -53 59 -54q47 0 80 66.5t33 167.5v35q0 123 40 203.5t109 80.5q41 0 56 -33q6 -18 6 -71v-412q0 -109 -29 -131q-16 -10 -49 -10q-6 0 -20 6q-8 2 -9 -4q0 -55 54 -90q53 -31 53 -90v-564 q0 -100 -72 -118q-35 -16 -35 -21q0 -8 45 -8h316q45 0 45 8q0 14 -37 21q-68 18 -68 118v1270q0 129 62 129q61 0 106 -82q51 -94 52 -264v-43q0 -188 98 -188q51 0 51 46v7q-4 43 -59 43q-8 27 -9 72q0 102 52 262q6 20 86 252h-1049z" />
<glyph unicode="U" horiz-adv-x="1056" d="M70 891q0 -57 51 -90q53 -31 53 -90v-326q0 -193 95.5 -300.5t269.5 -107.5t268 108t94 300v1118q0 100 70 119q37 6 37 18q0 10 -47 11h-316q-47 0 -47 -11q0 -4 37 -18q72 -19 72 -119v-1145q0 -215 -168 -215q-170 0 -170 215v1145q0 100 71 119q35 16 35 18 q0 10 -45 11h-315q-45 0 -45 -11q0 -12 36 -18q68 -18 68 -119v-473q0 -86 -13.5 -113.5t-64.5 -27.5q-4 0 -18 6q-8 2 -8 -4z" />
<glyph unicode="V" horiz-adv-x="1091" d="M35 1645q0 -4 45 -25q55 -29 78 -84q20 -45 37 -164l38 -268q12 -90 13 -137q0 -53 -15 -68q-8 -8 -38 -8q-6 0 -27 4q-10 4 -14.5 0t-4.5 -18q0 -18 35 -48q16 -8 30.5 -14t29.5 -12q33 -18 43 -66l71 -450q8 -47 11.5 -80t3.5 -53q0 -57 -33 -93q-14 -16 -36.5 -29.5 t-38 -20.5t-17.5 -7q0 -4 22 -4h475q18 0 19 4q0 -6 -53 29q-51 33 -52 92q0 47 21 137l240 1110q27 121 43 164q25 57 69.5 81.5t44.5 27.5q0 6 -13 6h-7h-398q-23 0 -22 -6q0 -4 47 -27q51 -23 59 -47q5 -13 5 -39q0 -44 -15 -127l-201 -1014l-149 1014q-16 97 -16 139 q0 20 4 27q8 27 57 49q49 20 49 25q0 6 -18 6h-404q-18 0 -18 -6z" />
<glyph unicode="W" horiz-adv-x="1540" d="M35 1645q0 -4 45 -25q55 -29 78 -84q20 -45 37 -164l38 -268q12 -90 13 -137q0 -53 -15 -68q-8 -8 -38 -8q-6 0 -27 4q-10 4 -14.5 0t-4.5 -18q0 -18 35 -48q16 -8 30.5 -14t29.5 -12q33 -18 43 -66l71 -450q8 -47 11.5 -80t3.5 -53q0 -57 -33 -93q-14 -16 -36.5 -29.5 t-38 -20.5t-17.5 -7q0 -4 22 -4h449q23 0 22 4q0 -4 -51 29t-51 92q0 -4 25 137l112 645l125 -620q8 -35 11 -69t3 -64q0 -55 -30 -93q-12 -16 -35 -29.5t-37 -20.5t-16 -7q0 -4 24 -4h426q18 0 19 4q0 -6 -53.5 29t-53.5 92q0 2 6 37t17 100l188 1110q18 104 43 162.5 t74 85.5q41 23 41 25q0 7 -12 7q-5 0 -11 -1h-397q-20 0 -21 -6q0 -4 48 -27q49 -23 57 -47q2 -7 2 -23q0 -41 -14 -143l-142 -922l-135 922q-16 97 -16 139q0 20 4 27q8 25 57 47q49 20 49 27q0 6 -20 6h-389q-20 0 -21 -6q0 -2 47 -25q49 -23 58 -49q3 -11 3 -33 q0 -45 -14 -133l-143 -922l-135 922q-16 97 -16 139q0 20 4 27q8 27 57 49q49 20 49 25q0 6 -18 6h-404q-18 0 -18 -6z" />
<glyph unicode="X" horiz-adv-x="985" d="M35 8q0 -8 45 -8h321q45 0 45 8q0 10 -36 21q-66 18 -66 82q0 18 6 36q55 166 93 279t59 172l151 -451q6 -18 6 -36q0 -63 -67 -82q-37 -16 -37 -21q0 -8 45 -8h322q47 0 47 8q0 12 -37 23q-35 10 -55 45q-8 14 -27 71l-250 754l199 602q31 94 119 119q37 14 36 18 q0 10 -45 11h-321q-45 0 -45 -11q0 -4 36.5 -16t36.5 -47q0 -18 -16 -74l-98 -303l-101 303q-16 55 -16 74q0 35 37 47q39 12 39 16q0 10 -45 11h-324q-45 0 -45 -11q0 -4 37 -18q88 -25 119 -119l143 -436q37 -111 37 -156q0 -47 -51 -47q-12 0 -28.5 8.5t-27.5 8.5 q-12 -10 -12 -33t17.5 -45.5t37.5 -46.5q14 -16 15 -39q0 -21 -12 -58l-168 -512q-33 -106 -82 -118q-37 -6 -37 -21z" />
<glyph unicode="Y" horiz-adv-x="983" d="M37 1640q0 6 51 -36q51 -41 76 -123l112 -369q37 -121 37 -168q0 -12 -4 -24q-23 -37 -51 -31h-31t6 2q-10 0 -10 -17q0 -35 43 -55q27 -12 52.5 -24.5t52.5 -22.5q10 -16 10 -145v-480q0 -100 -72 -118q-35 -16 -35 -21q0 -8 45 -8h316q45 0 45 8q0 10 -35 21 q-70 20 -70 118v568l259 778q20 61 79 109q53 41 54 38q0 10 -19 11h-370q-27 0 -27 -11q0 -2 41 -30q43 -29 43 -78q0 -23 -8 -47l-125 -459l-123 467q-6 20 -6 39q0 51 43 82q45 31 45 26q0 10 -35 11h-383q-6 -4 -6 -11z" />
<glyph unicode="Z" horiz-adv-x="1007" d="M68 0h882q-102 246 -102 418q0 49 10 96q20 2 40 5t26 34q4 25 -11.5 48.5t-50.5 23.5q-84 0 -123 -181q-31 -139 -61 -190q-49 -92 -137 -92h-121q-41 0 -58 28q0 35 21 82l584 1379h-770q86 -231 86 -391q0 -25 -2 -47.5t-7 -43.5q-12 4 -22 5q-51 0 -51 -46 q0 -57 59 -57t90 105q10 51 19.5 101t19.5 101q39 135 148 135h90q37 0 53 -16q-4 -14 -6 -23.5t-4 -15.5l-146 -346q-55 -131 -63 -145q-49 -78 -125 -78h-14q-6 0 -15 2q-2 -4 -2 -19q0 -33 16.5 -45t32.5 -26q25 -18 25 -37q0 -8 -2 -14z" />
<glyph unicode="[" horiz-adv-x="505" d="M70 -311h387v94h-211v1769h211v99h-387v-1962z" />
<glyph unicode="\" horiz-adv-x="454" d="M25 8q0 -8 45 -8h288q45 0 45 8q0 10 -36 21q-70 20 -70 118v1141q0 205 84 205q86 0 86 -111q0 -72 -61 -127q14 -10 45 -10q49 0 86.5 45t37.5 125q0 88 -57 144.5t-145 56.5q-244 0 -244 -352v-1117q0 -100 -68 -118q-37 -6 -36 -21z" />
<glyph unicode="]" horiz-adv-x="505" d="M70 -217v-94h387v1962h-387v-99h209v-1769h-209z" />
<glyph unicode="^" horiz-adv-x="778" d="M70 1219q131 14 159 24q76 25 150 98q78 -82 178 -108q70 -16 176 -16q-207 59 -293 219h-112q-57 -86 -107 -127q-23 -20 -60.5 -42t-90.5 -48z" />
<glyph unicode="_" horiz-adv-x="1204" d="M-47 -258v-86h1245v86h-1245z" />
<glyph unicode="`" horiz-adv-x="454" d="M70 1489l311 -270h22l-127 270h-206z" />
<glyph unicode="a" horiz-adv-x="720" d="M70 260q0 -131 67 -205q57 -63 150 -63q98 0 194 102q0 -94 13 -94h198q45 0 45 8q0 4 -37 21q-71 19 -71 121v649q0 293 -256 293q-111 0 -179.5 -61.5t-68.5 -172.5q0 -86 39 -142.5t108 -56.5q29 0 47 19q-65 93 -65 147q0 51 36 90t77 39q112 0 112 -160 q0 -23 -2 -48t-2 -29v-283q0 -295 -143 -295q-47 0 -74 37t-27 86q0 94 58 176q29 35 55.5 68t52.5 65q57 72 58 142q0 125 -72 125q-51 0 -51 -45q0 -29 26 -43q41 -23 45 -29q-12 -57 -100 -127q-63 -49 -101 -81t-52 -46q-80 -90 -80 -207z" />
<glyph unicode="b" horiz-adv-x="798" d="M70 1597q0 -12 36 -18q68 -19 68 -119v-1415q0 -47 12 -47q16 0 97 111q49 -117 168 -117q135 0 217 116.5t82 325.5q0 297 -181 484q-157 163 -157 205q0 19 41 36t41 45q0 49 -60 49q-31 0 -52.5 -37.5t-21.5 -85.5q0 -82 89 -202l26 -37q117 -164 117 -459 q0 -147 -36 -224t-93 -77q-78 0 -103 76q-18 51 -18 186v1215h-227q-45 0 -45 -11z" />
<glyph unicode="c" horiz-adv-x="679" d="M70 537q0 -545 299 -545q262 0 262 291q0 37 -13.5 70.5t-35 60t-52 42t-63.5 15.5q-43 0 -51 -33q82 -14 82 -121q0 -170 -129 -170q-82 0 -115 80q-35 92 -35 336q0 221 43 311q37 78 123 78q43 0 73.5 -41t30.5 -88q0 -63 -55 -143q21 -11 44 -11q15 0 32 5 q53 27 72 45q37 45 36 131q0 117 -70.5 179.5t-176.5 62.5q-301 0 -301 -555z" />
<glyph unicode="d" horiz-adv-x="796" d="M70 434q0 -209 83 -325.5t214 -116.5q117 0 170 117v-109h168q45 0 45 8q0 4 -37 21q-72 22 -72 118v1461h-225q-47 0 -47 -11q0 -12 37 -18q70 -18 69 -119v-1067q0 -131 -16 -186q-27 -76 -103 -76q-57 0 -94 77t-37 224q0 295 117 459l27 37q90 127 90 202 q0 45 -22.5 84t-53.5 39q-57 0 -57 -49q0 -31 39 -45q41 -16 41 -35q0 -43 -158 -206q-178 -182 -178 -484z" />
<glyph unicode="e" horiz-adv-x="688" d="M70 483q0 -244 77 -374q70 -117 199 -117q137 0 211 86q68 82 68 211q0 88 -42 137t-114 49q-10 0 -20.5 -1t-20.5 -3q57 -76 57 -152q0 -59 -41 -116q-41 -55 -82 -56q-76 0 -109.5 69t-33.5 243q0 493 159 493h1q110 0 110 -152q0 -97 -63 -155l-117 -86 q-63 -55 -63 -143q0 -47 28.5 -80t61.5 -33q25 0 44 20.5t19 43.5q0 43 -39 43q-14 0 -28.5 -12.5t-18.5 -12.5q-16 0 -16 37q0 86 111 123q45 14 100 19q31 3 66 3q28 0 59 -2q6 63 6 119q0 199 -72 307q-68 100 -190 101q-307 0 -307 -609z" />
<glyph unicode="f" horiz-adv-x="499" d="M115 0h288q45 0 46 8q0 10 -37 21q-70 20 -70 118v836h113v96h-113v209q0 205 84 205q86 0 86 -111q0 -72 -61 -127q14 -10 45 -10q49 0 87 45t38 125q0 88 -57.5 144.5t-145.5 56.5q-244 0 -244 -352v-185h-104v-96h104v-836q0 -100 -68 -118q-36 -6 -36 -20q0 -9 45 -9 z" />
<glyph unicode="g" horiz-adv-x="786" d="M70 -236q0 -111 90 -170t250 -59q327 0 327 260q0 164 -137 209q-39 14 -254 37q-137 12 -137 84q0 33 17.5 47.5t33.5 26.5q-19 26 -70 26h-4q-43 0 -72.5 -37.5t-29.5 -91.5q0 -133 135 -166q63 -8 126 -14t126 -14q135 -23 135 -127q0 -111 -194 -111q-203 0 -203 115 q0 53 57 67q4 8 4 13q0 18 -21.5 34.5t-53.5 16.5q-55 0 -90 -44t-35 -102zM141 645q0 -211 65.5 -330.5t182.5 -119.5t182.5 119.5t65.5 330.5q0 43 -2 79t-6 64q-4 39 -7.5 57.5t-3.5 16.5q0 78 64 78q49 0 49 -55q0 -39 -29 -62q18 -6 37 -6q43 0 69 38t26 87 q0 53 -35 90t-92 37q-66 0 -142 -86q-68 109 -176 109q-117 0 -182.5 -119t-65.5 -328zM281 641v5q0 296 108 296q117 0 117 -301q0 -299 -117 -299q-108 0 -108 294v5z" />
<glyph unicode="h" horiz-adv-x="786" d="M115 0h288q45 0 46 8q0 10 -37 21q-70 20 -70 118v576q0 233 107 233q131 0 131 -258q0 -76 -9.5 -162.5t-29.5 -189.5q-37 -201 -37 -280q0 -264 141 -265q61 0 62 49q0 49 -48 50q-6 0 -20 -4.5t-23 -4.5q-41 0 -41 107q0 45 80 297q82 248 82 461q0 336 -233 336 q-94 0 -162 -68v584h-227q-45 0 -45 -11q0 -12 36 -18q68 -18 68 -119v-1313q0 -100 -68 -118q-36 -6 -36 -20q0 -9 45 -9z" />
<glyph unicode="i" horiz-adv-x="499" d="M115 0h288q45 0 46 8q0 10 -37 21q-70 20 -70 118v932h-227q-45 0 -45 -8q0 -12 36 -18q68 -23 68 -119v-787q0 -100 -68 -118q-36 -6 -36 -20q0 -9 45 -9zM166 1411q0 -51 20 -86q27 -43 74 -43q45 0 74 43q20 35 20 86q0 47 -20 82q-29 43 -74 43q-47 0 -70.5 -40 t-23.5 -85z" />
<glyph unicode="j" horiz-adv-x="499" d="M-80 -272q0 -176 186 -177q145 0 195 89q41 75 41 268v1171h-227q-45 0 -45 -8q0 -12 36 -18q68 -23 68 -119v-1038q0 -115 -12 -160q-16 -59 -62 -60q-29 0 -52 30t-23 69t24 73q-14 14 -33 15q-35 0 -65.5 -41t-30.5 -94zM141 1411q0 -129 95 -129q92 0 92 129 q0 45 -22.5 85t-69.5 40q-49 0 -74 -43q-20 -33 -21 -82z" />
<glyph unicode="k" horiz-adv-x="856" d="M115 0h288q45 0 46 8q0 10 -37 21q-70 20 -70 118v1461h-227q-45 0 -45 -11q0 -12 36 -18q68 -19 68 -119v-1313q0 -100 -68 -118q-36 -6 -36 -20q0 -9 45 -9zM360 338q0 -98 68 -98q29 0 29 26q0 33 -35 43q-35 12 -35 39q0 49 39 141q12 29 18 29t13 -20l90 -363 q8 -28 8 -49q0 -48 -41 -57q-35 -6 -35 -21q0 -8 45 -8h234q45 0 45 8q0 12 -35 23q-35 8 -49 43q-2 2 -21 73l-143 560q35 70 69.5 137t69.5 137q35 59 70 72q37 6 37 18q0 8 -45 8h-256q-45 0 -45 -8t34 -18q47 -10 48 -82q0 -63 -33 -156l-88 -250q-55 -158 -56 -227z " />
<glyph unicode="l" horiz-adv-x="499" d="M115 0h288q45 0 46 8q0 10 -37 21q-70 20 -70 118v1461h-227q-45 0 -45 -11q0 -12 36 -18q68 -19 68 -119v-1313q0 -100 -68 -118q-36 -6 -36 -20q0 -9 45 -9z" />
<glyph unicode="m" horiz-adv-x="1138" d="M115 0h243q45 0 45 8q0 10 -36 21q-35 8 -43 37q-4 20 -5 81v678q0 119 105 119q104 0 104 -100v-697q0 -35 -1 -54t-3 -27q-6 -25 -43 -35.5t-37 -22.5q0 -8 45 -8h246q45 0 45 8q0 6 -36.5 18.5t-43.5 39.5q-2 8 -3 27.5t-1 53.5v611q0 186 105 186q70 0 98 -49 q33 -53 33 -197q0 -150 -37 -352q-37 -201 -37 -280q0 -264 139 -265q63 0 64 49q0 49 -49 50q-6 0 -19.5 -4.5t-21.5 -4.5q-43 0 -43 107q0 45 80 297q82 248 82 461q0 336 -232 336q-111 0 -199 -111q-53 111 -178 111q-98 0 -166 -103v90h-200q-45 0 -45 -8q0 -10 34 -20 q37 -8 46 -35q4 -20 4 -82v-787q0 -61 -4 -81q-8 -27 -46 -35q-34 -10 -34 -22q0 -9 45 -9z" />
<glyph unicode="n" horiz-adv-x="874" d="M70 1071q0 -12 36 -18q68 -23 68 -119v-934h229q45 0 46 8q0 10 -37 21q-70 20 -70 118v678q0 119 104 119t105 -127v-817h229q45 0 45 8q0 4 -37 21q-72 23 -71 118v611q0 334 -213 334q-98 0 -166 -103v90h-223q-45 0 -45 -8z" />
<glyph unicode="o" horiz-adv-x="712" d="M70 543q0 -551 297 -551t297 551q0 549 -297 549t-297 -549zM225 543q1 409 142 409t141 -409q0 -416 -141 -416t-142 416z" />
<glyph unicode="p" horiz-adv-x="798" d="M115 -461h288q45 0 46 8q0 10 -37 21q-70 21 -70 117v1001q0 133 18 186q25 76 103 76q129 0 129 -301q0 -295 -117 -457l-26 -36q-88 -121 -89 -201q0 -47 21.5 -85t52.5 -38q59 0 60 49q0 29 -41 45.5t-41 34.5q0 39 157 203q180 186 181 483q0 211 -82 329t-217 118 q-119 0 -168 -119v106h-168q-45 0 -45 -8q0 -12 36 -18q68 -23 68 -119v-1249q0 -96 -68 -117q-36 -12 -36 -21q0 -8 45 -8z" />
<glyph unicode="q" horiz-adv-x="798" d="M70 645q0 -303 178 -483q158 -164 158 -203q0 -18 -41 -35q-39 -14 -39 -45q0 -49 57 -49q31 0 53.5 38t22.5 85q0 74 -90 201l-27 36q-117 162 -117 457q0 152 39 230q35 71 90 71h2q76 0 103 -76q16 -55 16 -186v-1001q0 -96 -69 -117q-37 -12 -37 -21q0 -8 47 -8h289 q45 0 45 8q0 4 -37 21q-72 23 -72 117v1349q0 51 -10 51l-23 -27q-24 -28 -71 -85q-51 119 -170 119q-66 0 -120 -31t-94 -88.5t-61.5 -140t-21.5 -187.5z" />
<glyph unicode="r" horiz-adv-x="641" d="M115 0h288q45 0 46 8q0 10 -37 21q-70 20 -70 118v662q0 147 98 147q33 0 57.5 -25.5t24.5 -58.5q0 -51 -49 -120q10 -1 20 -1q144 0 144 169q0 80 -47 126t-127 46q-61 0 -135 -82l-13 69h-200q-45 0 -45 -8q0 -12 36 -18q68 -23 68 -119v-787q0 -100 -68 -118 q-36 -6 -36 -20q0 -9 45 -9z" />
<glyph unicode="s" horiz-adv-x="686" d="M70 264q0 -135 86 -209q76 -63 190 -63q145 0 223 98q66 88 66 217q0 152 -98 254q-25 27 -181 137q-98 70 -98 142q0 49 32 81.5t79 32.5q125 0 125 -112q-1 -41 -64 -111q14 -20 57 -20q59 0 98.5 48t39.5 124q0 92 -72 150.5t-182 58.5q-121 0 -193 -84 q-63 -76 -63 -189q0 -131 98 -213q47 -33 92 -63.5t90 -63.5q98 -78 99 -186q0 -66 -42 -115t-106 -49q-59 0 -97 42t-38 103q0 84 63 156q-14 20 -73 21q-47 0 -86 -52q-45 -53 -45 -135z" />
<glyph unicode="t" horiz-adv-x="591" d="M82 969h84v-613q0 -207 53 -290q45 -74 168 -74q96 0 152 61q49 55 49 131q0 45 -13.5 85t-38 68t-58.5 41q-23 9 -50 9q-12 0 -25 -2q53 -88 54 -139q0 -92 -60 -92q-43 0 -55 39q-4 20 -7 64t-3 116v596h125v110h-125v394q-29 -47 -49.5 -79t-32.5 -46 q-20 -23 -53 -50.5t-78 -60.5q39 -39 45 -68q2 -6 2 -90h-84v-110z" />
<glyph unicode="u" horiz-adv-x="786" d="M68 324q0 -332 231 -332q96 0 162 63v-55h227q47 0 47 8q0 4 -37 21q-72 18 -71 118v787q0 100 71 119q37 8 37 18q0 8 -47 8h-289q-45 0 -45 -8t35 -18q72 -19 72 -119v-578q0 -233 -107 -233q-131 0 -131 260q0 150 37 350q20 102 29.5 172t9.5 111q0 141 -47 213 q-37 53 -94 53q-63 0 -64 -51q0 -18 15.5 -33.5t33.5 -15.5q6 0 20.5 4t20.5 4q43 0 43 -105q0 -47 -80 -301q-79 -249 -79 -455v-5z" />
<glyph unicode="v" horiz-adv-x="821" d="M35 1071q0 -10 37 -18q57 -12 82 -133l153 -773q2 -10 3 -17t1 -15q0 -66 -73 -86q-37 -6 -37 -21q0 -8 45 -8h332q45 0 45 8q0 10 -37 21q-74 20 -74 90q0 18 2 28l156 762q25 119 96 144q37 6 37 18q0 8 -45 8h-258q-45 0 -45 -8q0 -10 37 -18q36 -10 36 -69 q0 -36 -8 -77l-100 -567l-101 569q-6 33 -6 62q0 72 43 82q35 10 35 18t-45 8h-266q-45 0 -45 -8z" />
<glyph unicode="w" horiz-adv-x="1247" d="M35 1071q0 -10 37 -18q61 -14 82 -133l131 -773q2 -10 2 -30q0 -68 -74 -88q-37 -16 -37 -21q0 -8 47 -8h328q45 0 45 8q0 14 -37 21q-74 20 -74 88q0 10 4 30l132 553l92 -553q2 -10 2 -30q0 -70 -74 -88q-35 -16 -35 -21q0 -8 47 -8h328q45 0 45 8q0 10 -37 21 q-76 20 -76 88q0 10 5 30l178 762q27 125 98 144q37 6 37 18q0 8 -45 8h-258q-47 0 -47 -8q0 -10 38.5 -18.5t38.5 -71.5q0 -23 -10 -74l-123 -567l-104 594q-2 10 -3 17t-1 16q0 59 76 86q37 14 36 18q0 8 -45 8h-288q-47 0 -47 -8q0 -12 36 -18q76 -20 76 -82 q0 -16 -6 -37l-158 -594l-78 569q-2 16 -3 30.5t-1 27.5q0 76 41 86q35 10 35 18t-45 8h-266q-45 0 -45 -8z" />
<glyph unicode="x" horiz-adv-x="839" d="M35 8q0 -8 45 -8h266q45 0 45 8q0 4 -35 21q-51 14 -51 55q0 20 17 63l112 269l107 -269q14 -35 14 -61q0 -43 -49 -57q-37 -16 -37 -21q0 -8 45 -8h268q45 0 45 8q0 4 -36 21q-70 20 -109 118q-63 164 -107.5 274.5t-66.5 170.5l145 342q43 96 105 119q37 6 37 18 q0 8 -45 8h-240q-45 0 -45 -8t35 -18.5t35 -34.5q0 -23 -27 -84l-68 -162l-63 162q-27 68 -27 84q0 25 35 35t35 18t-47 8h-240q-45 0 -45 -8q0 -10 37 -18q70 -18 108 -119q47 -125 81 -210t51 -132l-189 -445q-43 -104 -104 -118q-37 -6 -37 -21z" />
<glyph unicode="y" horiz-adv-x="823" d="M35 1071q0 -10 37 -18q57 -12 82 -133l188 -920q-16 -88 -25.5 -139t-13.5 -68q-27 -94 -76 -94q-55 0 -55 61q0 57 72 107q-12 27 -70 27q-137 0 -137 -152q0 -86 46 -134t126 -48q127 0 186 123q20 45 50 160.5t69 303.5l156 762q25 119 96 144q37 6 37 18q0 8 -45 8 h-258q-45 0 -45 -8q0 -10 37 -18q36 -10 36 -69q0 -38 -8 -77l-100 -522l-101 524q-6 33 -6 62q0 72 43 82q35 10 35 18t-45 8h-266q-45 0 -45 -8z" />
<glyph unicode="z" horiz-adv-x="722" d="M68 0h591v203q0 45 -8 45q-14 0 -20 -37q-23 -68 -119 -68h-205l369 936h-533v-205q0 -45 11 -45q4 0 14 37q18 72 119 72h168z" />
<glyph unicode="{" horiz-adv-x="974" d="M70 539q205 -18 290 -105q72 -72 72 -203v-301q0 -211 148 -311q125 -88 344 -88v61q-152 0 -246 99q-90 94 -90 223v229q0 244 -111 336q-86 74 -346 109q244 41 344 119q113 88 113 268v233q0 203 65 275q68 74 271 106v62q-492 0 -492 -428v-211q0 -199 -88 -279 q-72 -66 -274 -96v-98z" />
<glyph unicode="|" horiz-adv-x="204" d="M68 -344h86v1995h-86v-1995z" />
<glyph unicode="}" horiz-adv-x="974" d="M70 -408v-61q217 0 342 88q145 102 145 311v301q0 131 74 203q86 86 291 105v98q-201 31 -277 96q-88 80 -88 279v211q0 428 -487 428v-62q203 -33 270 -106q66 -72 66 -275v-233q0 -180 112 -268q100 -78 344 -119q-260 -35 -346 -109q-111 -92 -110 -336v-229 q0 -129 -91 -223q-96 -98 -245 -99z" />
<glyph unicode="~" horiz-adv-x="583" d="M70 1303q0 -80 55 -80q41 0 41 39q0 33 -31 55q8 12 27 12q14 0 92 -57q82 -55 154 -55q45 0 86 49q41 51 41 102q0 39 -20.5 59.5t-41.5 20.5q-33 -2 -33 -41q0 -41 33 -43q4 -8 -4 -15.5t-20 -7.5q-31 0 -109 53.5t-135 53.5q-29 0 -53.5 -12.5t-43 -33t-28.5 -47 t-10 -52.5z" />
<glyph unicode="&#xa1;" horiz-adv-x="458" d="M70 4q6 -6 26 -4h289q18 -2 25 4q-72 49 -101 172q-4 29 -8 77t-6 116l-23 882h-65l-21 -882q-2 -129 -16 -193q-25 -123 -100 -172zM135 1489q1 -160 107 -160q109 0 108 160q0 166 -108 166q-106 0 -107 -166z" />
<glyph unicode="&#xa2;" horiz-adv-x="612" d="M70 758q0 -451 235 -475v-119h43v119q211 12 211 256q0 31 -11 60.5t-29.5 53t-44 36.5t-56.5 13q-37 0 -49 -30q74 -10 73 -103q0 -141 -94 -149v704q37 -2 63.5 -36.5t26.5 -77.5q0 -53 -51 -125q29 -16 68 -4q49 27 61 39q31 39 31 114q0 96 -58 154q-57 53 -141 59 v117h-43v-119q-236 -27 -235 -487zM199 784q0 303 106 334v-696q-29 4 -49 23.5t-32.5 62.5t-18.5 110.5t-6 165.5z" />
<glyph unicode="&#xa3;" horiz-adv-x="894" d="M70 135q0 -72 49 -115q43 -35 106 -36q70 -2 160 90q113 -88 240 -88q100 0 161 69q55 63 56 166q0 39 -14.5 75t-37 63.5t-53 43t-63.5 15.5q-35 0 -58 -29q78 -49 78 -100q0 -133 -100 -133q-33 0 -129 57q41 104 41 195q0 74 -47 227h133v82h-166q-39 104 -61.5 167.5 t-30.5 88.5q-45 141 -45 241q0 205 141 205q55 0 91 -54t36 -142q0 -184 -90 -285q8 -33 47 -33q96 0 152 105q45 88 45 217q0 143 -72 243q-80 106 -219 107q-135 0 -217 -111q-76 -100 -76 -252q0 -172 133 -497h-108v-82h141q61 -147 61 -234q0 -45 -16 -120 q-80 23 -111 22q-72 0 -114.5 -47t-42.5 -121zM186 125q1 57 64 57q29 0 49 -26q-8 -23 -32.5 -42.5t-43.5 -19.5q-37 0 -37 31z" />
<glyph unicode="&#xa4;" horiz-adv-x="1300" d="M76 543h182q117 -543 645 -543q143 0 260 33l-43 184q-84 -18 -147 -18q-358 0 -471 344h551v129h-582q-6 55 -6 125q0 43 6 90h582v127h-551q61 182 196 274q119 82 275 82q84 0 162 -18l49 188q-100 27 -217 27q-258 0 -441 -137q-197 -143 -264 -416h-186v-127h168 q-6 -49 -6 -94q0 -33 1 -63t3 -58h-166v-129z" />
<glyph unicode="&#xa5;" horiz-adv-x="1040" d="M141 1503q0 -152 74 -350q57 -154 158 -276l178 -213q20 -27 12 -54l-33 -78h-108l-33 -65h115l-21 -47h-112l-33 -66h119l-99 -235q-18 -45 -73 -78q-12 -8 -64 -16q-41 -10 -31 -25q6 -8 21 -8q8 0 30.5 4t28.5 4h240q29 0 29 10q0 2 -2 11.5t-5.5 19.5t-5.5 19.5 t-2 13.5q-4 43 19 92l78 188h90l34 66h-98l19 47h96l35 65h-105l365 893q14 39 41 62q2 0 11 4t19.5 9t17.5 10.5t7 9.5q-8 14 -18 14h-336q-18 -4 -19 -14q0 2 51 -50q4 -10 8.5 -27.5t6.5 -39.5q2 -43 -25 -117l-190 -508q-29 -74 -43 -73q-12 0 -27 14q-246 254 -246 557 q0 27 4.5 58.5t12.5 72.5q23 102 53 102q4 0 17.5 -2t17.5 -2q18 0 18 15q0 16 -18 16h-250q-29 0 -29 -33z" />
<glyph unicode="&#xa6;" horiz-adv-x="303" d="M94 0h111v553h-111v-553zM94 772h111v608h-111v-608z" />
<glyph unicode="&#xa7;" horiz-adv-x="657" d="M78 219q0 -113 8 -145q14 -76 61 -76h371q35 0 35 49v309q0 94 -115 215q92 10 125 150q23 96 23 164q0 109 -72 198q-109 100 -203 185q-121 109 -121 211q0 76 95 75q59 0 137 -71.5t78 -128.5q-1 -21 -21 -60q25 0 49.5 49.5t24.5 77.5v109q0 45 -45 45h-338 q-68 0 -68 -105q0 -117 52 -217l135 -215q-186 0 -187 -145q0 -98 52 -207q27 -53 104 -180q172 -274 172 -373q0 -115 -70 -115h-145q-43 0 -72.5 27t-29.5 68q0 63 37.5 109t97.5 46q-23 41 -34 64.5t-13 27.5l-49 91q-74 -66 -74 -232zM217 893q0 43 33 71.5t82 28.5 q35 -39 60.5 -69.5t41.5 -53.5l15 -20q35 -51 34 -86q0 -92 -118 -117q-147 184 -148 246z" />
<glyph unicode="&#xa8;" horiz-adv-x="657" d="M70 1315q0 -41 28.5 -69.5t69.5 -28.5t69.5 28.5t28.5 69.5t-28.5 69.5t-69.5 28.5t-69.5 -28.5t-28.5 -69.5zM408 1315q0 -41 28.5 -69.5t69.5 -28.5t70.5 28.5t29.5 69.5t-29.5 69.5t-70.5 28.5t-69.5 -28.5t-28.5 -69.5z" />
<glyph unicode="&#xa9;" horiz-adv-x="866" d="M70 1278q0 -154 108 -266q106 -111 262 -111q152 0 265 109q113 106 112 262q0 156 -108 268q-109 111 -263 111t-266 -111q-111 -109 -110 -262zM111 1278q0 137 98 233q100 98 237 99q139 0 234 -101q98 -98 98 -237t-100 -234q-100 -96 -238 -96q-135 0 -233 98 q-96 103 -96 238zM221 1282q0 -96 61.5 -165.5t147.5 -69.5q119 0 197 122l-21 11q-68 -102 -143 -103q-74 0 -113 62q-37 51 -37 137q0 94 35 153.5t96 59.5q121 0 150 -160h22v178h-24q0 -35 -25 -34q-6 0 -47 20q-39 20 -86 20q-86 0 -149 -67q-63 -66 -64 -164z" />
<glyph unicode="&#xab;" horiz-adv-x="573" d="M70 731l110 -262l82 37l-98 229l119 228l-78 43zM307 731l113 -262l82 37l-99 229l119 228l-78 43z" />
<glyph unicode="&#xac;" horiz-adv-x="1245" d="M68 1651l995 -2083h133l-993 2083h-135z" />
<glyph unicode="&#xad;" horiz-adv-x="522" d="M39 565h403v86h-403v-86z" />
<glyph unicode="&#xae;" horiz-adv-x="866" d="M70 1278q0 -156 108 -268q109 -109 264 -109q152 0 265 109q111 106 110 260q0 156 -108 268q-107 113 -263 113q-154 0 -266 -111q-111 -109 -110 -262zM111 1278q0 137 98 233q100 98 237 99q139 0 234 -101q98 -102 98 -239q0 -135 -100 -234q-100 -96 -236 -96 q-137 0 -235 100q-96 103 -96 238zM233 1061h218v20q-49 0 -60.5 9.5t-11.5 50.5v123h51q57 0 68 -56q4 -27 8 -52.5t8 -51.5q14 -55 76 -55q90 0 90 110h-23q0 -78 -36 -78q-20 0 -29 39q-12 59 -23 84q-29 49 -90 68q150 33 148 112q-2 106 -234 107h-160v-25 q49 0 60.5 -9t11.5 -48v-268q0 -41 -11 -50.5t-61 -9.5v-20zM379 1292v119q0 35 9 46t46 11q105 0 105 -82q0 -94 -117 -94h-43z" />
<glyph unicode="&#xb4;" horiz-adv-x="454" d="M70 1219h20l313 270h-206z" />
<glyph unicode="&#xb6;" horiz-adv-x="1191" d="M53 1186q0 -170 105 -418q121 -287 268 -287q27 0 50.5 16.5t23.5 41.5q0 43 -45 43q-12 0 -21 -15q-20 -27 -45 -26q-41 0 -92 73q-98 143 -98 439q0 168 61 290q78 158 229 158q76 0 76 -37v-1327q0 -102 -47 -102h-270q-10 0 -43 6q-35 6 -45 6q-41 0 -41 -29 q0 -18 14 -18h905q14 0 15 14q0 12 -13 13q-70 0 -69 110v1262q0 39 25.5 66.5t62.5 27.5h2q4 0 12 -2q4 -2 8 -2q17 -1 17 22q0 25 -23 25h-831q-98 0 -152 -133q-39 -96 -39 -217zM694 137v1262q0 94 76 94q72 0 72 -94v-1262q0 -102 -68 -102q-80 0 -80 102z" />
<glyph unicode="&#xb8;" horiz-adv-x="323" d="M66 -264q92 -4 150 38t58 99q0 35 -28 80q-29 41 -47 41q-53 0 -129 -45q33 -14 50 -22.5t21 -12.5q33 -25 31 -68q-4 -55 -106 -110z" />
<glyph unicode="&#xbb;" horiz-adv-x="573" d="M70 963l116 -228l-98 -229l82 -37l113 262l-136 275zM307 963l119 -228l-98 -229l82 -37l112 262l-137 275z" />
<glyph unicode="&#xbc;" horiz-adv-x="872" d="M70 8q0 -8 45 -8h288q37 0 41 2q2 -2 39 -2h291q45 0 45 8q0 4 -37 21q-72 18 -71 118v836h112v96h-112v209q0 205 84 205q86 0 86 -111q0 -68 -60 -127q10 -10 43 -10q51 0 88 45t37 125q0 88 -57.5 144.5t-145.5 56.5q-133 0 -190 -105q-53 104 -178 105 q-244 0 -244 -352v-185h-104v-96h104v-836q0 -100 -68 -118q-37 -6 -36 -21zM342 147v836h203v-836q0 -100 -72 -118q-14 -2 -31 -17q-16 14 -30 17q-70 18 -70 118zM342 1079v209q0 205 84 205q86 0 86 -111q0 -72 -61 -127q14 -10 45 -10q25 0 49 12v-178h-203z" />
<glyph unicode="&#xbd;" horiz-adv-x="1316" d="M70 8q0 -8 45 -8h288q37 0 41 2q2 -2 39 -2h291q45 0 45 8q0 4 -37 21q-72 18 -71 118v836h112v96h-112v209q0 205 84 205q86 0 86 -111q0 -68 -60 -127q10 -10 43 -10q51 0 88 45t37 125q0 88 -57.5 144.5t-145.5 56.5q-133 0 -190 -105q-53 104 -178 105 q-244 0 -244 -352v-185h-104v-96h104v-836q0 -100 -68 -118q-37 -6 -36 -21zM342 147v836h203v-836q0 -100 -72 -118q-14 -2 -31 -17q-16 14 -30 17q-70 18 -70 118zM342 1079v209q0 205 84 205q86 0 86 -111q0 -72 -61 -127q14 -10 45 -10q25 0 49 12v-178h-203zM885 8 q0 -8 47 -8h289q45 0 45 8q0 4 -35 21q-72 18 -72 118v932h-227q-47 0 -47 -8q0 -10 37 -18q71 -19 71 -119v-787q0 -100 -71 -118q-37 -16 -37 -21z" />
<glyph unicode="&#xbe;" horiz-adv-x="1230" d="M70 8q0 -8 45 -8h288q37 0 41 2q2 -2 39 -2h291q29 0 35 2q6 -2 35 -2h291q45 0 45 8q0 4 -35 21q-72 18 -72 118v1461h-192q-20 0 -52 4t-43 4q-133 0 -190 -105q-53 104 -178 105q-244 0 -244 -352v-185h-104v-96h104v-836q0 -100 -68 -118q-37 -6 -36 -21zM342 147 v836h203v-836q0 -100 -72 -118q-14 -2 -31 -17q-16 14 -30 17q-70 18 -70 118zM342 1079v209q0 205 84 205q86 0 86 -111q0 -72 -61 -127q14 -10 45 -10q25 0 49 12v-178h-203zM711 147v836h112v96h-112v209q0 205 84 205q86 0 86 -111q0 -68 -60 -127q10 -10 43 -10 q29 0 43 8v-1106q0 -96 -71 -118q-8 -4 -15.5 -7.5t-11.5 -7.5q-10 4 -16.5 8.5t-10.5 6.5q-72 23 -71 118z" />
<glyph unicode="&#xbf;" horiz-adv-x="614" d="M70 381q0 -145 59 -254q68 -127 186 -127q248 0 248 342q0 129 -44 209t-124 80q-33 0 -55 -29q66 -45 82 -82q14 -31 14 -164q0 -92 -25.5 -151.5t-64.5 -63.5q-51 -6 -85 54.5t-34 152.5q4 223 127 451l35 63q78 143 78 244q0 63 -35 109.5t-78 46.5q-61 0 -69 -25 l6 -8q31 -2 57 -39q18 -29 19 -57q0 -72 -76 -197l-47 -78q-174 -285 -174 -477zM233 1489q0 -160 109 -160q106 0 107 160q0 78 -31 122t-76 44q-47 0 -78 -44t-31 -122z" />
<glyph unicode="&#xc0;" horiz-adv-x="1077" d="M45 12q-6 -4 6 -8t23 -4h368q14 0 23.5 5t5.5 7q-102 49 -102 140q0 76 49 258q74 12 86 -62q-33 -59 -33 -88q0 -23 19.5 -46.5t44.5 -23.5q37 0 59 26t22 56q0 29 -30 90q31 41 82 41q43 -133 43 -245q0 -61 -15 -82q-12 -20 -80 -58q-2 0 -2 -2q0 -16 27 -16h360 q39 0 39 10l-2 2q-76 45 -96 76q-23 35 -37 125l-192 1206q-8 47 -8 88q0 53 18 84q12 20 37 31q18 8 18 14q0 14 -39 15h-342q-39 0 -39 -15q0 -4 20.5 -14t33.5 -31q18 -31 18 -84q0 -45 -18 -139l-50 -262q-29 -145 -51 -182q-25 -41 -78 -41q-12 0 -26 6q-6 4 -10 -4 q-6 -6 -4 -19.5t10 -27t17 -25.5t20 -18q49 -35 49 -62l-3 -15q-3 -16 -10 -48l-71 -379q-10 -59 -20.5 -98t-20.5 -60q-33 -70 -119 -121zM233 2079l312 -269h22l-127 269h-207zM446 629l107 606q2 4 4 0t2 -12l86 -605q-63 -53 -94 -81q-80 76 -105 92z" />
<glyph unicode="&#xc1;" horiz-adv-x="1077" d="M45 12q-6 -4 6 -8t23 -4h368q14 0 23.5 5t5.5 7q-102 49 -102 140q0 76 49 258q74 12 86 -62q-33 -59 -33 -88q0 -23 19.5 -46.5t44.5 -23.5q37 0 59 26t22 56q0 29 -30 90q31 41 82 41q43 -133 43 -245q0 -61 -15 -82q-12 -20 -80 -58q-2 0 -2 -2q0 -16 27 -16h360 q39 0 39 10l-2 2q-76 45 -96 76q-23 35 -37 125l-192 1206q-8 47 -8 88q0 53 18 84q12 20 37 31q18 8 18 14q0 14 -39 15h-342q-39 0 -39 -15q0 -4 20.5 -14t33.5 -31q18 -31 18 -84q0 -45 -18 -139l-50 -262q-29 -145 -51 -182q-25 -41 -78 -41q-12 0 -26 6q-6 4 -10 -4 q-6 -6 -4 -19.5t10 -27t17 -25.5t20 -18q49 -35 49 -62l-3 -15q-3 -16 -10 -48l-71 -379q-10 -59 -20.5 -98t-20.5 -60q-33 -70 -119 -121zM446 629l107 606q2 4 4 0t2 -12l86 -605q-63 -53 -94 -81q-80 76 -105 92zM569 1810h23l313 269h-207z" />
<glyph unicode="&#xc2;" horiz-adv-x="1077" d="M45 12q-6 -4 6 -8t23 -4h368q14 0 23.5 5t5.5 7q-102 49 -102 140q0 76 49 258q74 12 86 -62q-33 -59 -33 -88q0 -23 19.5 -46.5t44.5 -23.5q37 0 59 26t22 56q0 29 -30 90q31 41 82 41q43 -133 43 -245q0 -61 -15 -82q-12 -20 -80 -58q-2 0 -2 -2q0 -16 27 -16h360 q39 0 39 10l-2 2q-76 45 -96 76q-23 35 -37 125l-192 1206q-8 47 -8 88q0 53 18 84q12 20 37 31q18 8 18 14q0 14 -39 15h-342q-39 0 -39 -15q0 -4 20.5 -14t33.5 -31q18 -31 18 -84q0 -45 -18 -139l-50 -262q-29 -145 -51 -182q-25 -41 -78 -41q-12 0 -26 6q-6 4 -10 -4 q-6 -6 -4 -19.5t10 -27t17 -25.5t20 -18q49 -35 49 -62l-3 -15q-3 -16 -10 -48l-71 -379q-10 -59 -20.5 -98t-20.5 -60q-33 -70 -119 -121zM264 1812q131 14 162 25q76 20 149 98q117 -125 353 -125q-205 59 -293 220h-111q-59 -90 -106 -129q-43 -37 -154 -89zM446 629 l107 606q2 4 4 0t2 -12l86 -605q-63 -53 -94 -81q-80 76 -105 92z" />
<glyph unicode="&#xc3;" horiz-adv-x="1077" d="M45 12q-6 -4 6 -8t23 -4h368q14 0 23.5 5t5.5 7q-102 49 -102 140q0 76 49 258q74 12 86 -62q-33 -59 -33 -88q0 -23 19.5 -46.5t44.5 -23.5q37 0 59 26t22 56q0 29 -30 90q31 41 82 41q43 -133 43 -245q0 -61 -15 -82q-12 -20 -80 -58q-2 0 -2 -2q0 -16 27 -16h360 q39 0 39 10l-2 2q-76 45 -96 76q-23 35 -37 125l-192 1206q-8 47 -8 88q0 53 18 84q12 20 37 31q18 8 18 14q0 14 -39 15h-342q-39 0 -39 -15q0 -4 20.5 -14t33.5 -31q18 -31 18 -84q0 -45 -18 -139l-50 -262q-29 -145 -51 -182q-25 -41 -78 -41q-12 0 -26 6q-6 4 -10 -4 q-6 -6 -4 -19.5t10 -27t17 -25.5t20 -18q49 -35 49 -62l-3 -15q-3 -16 -10 -48l-71 -379q-10 -59 -20.5 -98t-20.5 -60q-33 -70 -119 -121zM350 1896q0 -80 58 -79q41 0 41 38q0 35 -29 54q8 12 24 12q10 0 95 -55q82 -55 153 -56q43 0 84 50q41 51 41 100q0 39 -20.5 59.5 t-40.5 20.5q-35 -4 -35 -41q0 -39 35 -43q8 -20 -23 -21q-33 0 -110 52q-78 53 -136 53q-29 0 -53 -13.5t-42.5 -34t-30 -46t-11.5 -50.5zM446 629l107 606q2 4 4 0t2 -12l86 -605q-63 -53 -94 -81q-80 76 -105 92z" />
<glyph unicode="&#xc4;" horiz-adv-x="1077" d="M45 12q-6 -4 6 -8t23 -4h368q14 0 23.5 5t5.5 7q-102 49 -102 140q0 76 49 258q74 12 86 -62q-33 -59 -33 -88q0 -23 19.5 -46.5t44.5 -23.5q37 0 59 26t22 56q0 29 -30 90q31 41 82 41q43 -133 43 -245q0 -61 -15 -82q-12 -20 -80 -58q-2 0 -2 -2q0 -16 27 -16h360 q39 0 39 10l-2 2q-76 45 -96 76q-23 35 -37 125l-192 1206q-8 47 -8 88q0 53 18 84q12 20 37 31q18 8 18 14q0 14 -39 15h-342q-39 0 -39 -15q0 -4 20.5 -14t33.5 -31q18 -31 18 -84q0 -45 -18 -139l-50 -262q-29 -145 -51 -182q-25 -41 -78 -41q-12 0 -26 6q-6 4 -10 -4 q-6 -6 -4 -19.5t10 -27t17 -25.5t20 -18q49 -35 49 -62l-3 -15q-3 -16 -10 -48l-71 -379q-10 -59 -20.5 -98t-20.5 -60q-33 -70 -119 -121zM297 1907q0 -39 29.5 -68t70.5 -29t70 29t29 68q0 41 -29 69.5t-70 28.5t-70.5 -28.5t-29.5 -69.5zM446 629l107 606q2 4 4 0t2 -12 l86 -605q-63 -53 -94 -81q-80 76 -105 92zM635 1907q0 -41 28.5 -69t71.5 -28q41 0 70 29t29 68q0 41 -29 69.5t-70 28.5q-43 0 -71.5 -28.5t-28.5 -69.5z" />
<glyph unicode="&#xc5;" horiz-adv-x="1077" d="M45 12q-6 -4 6 -8t23 -4h368q14 0 23.5 5t5.5 7q-102 49 -102 140q0 76 49 258q74 12 86 -62q-33 -59 -33 -88q0 -23 19.5 -46.5t44.5 -23.5q37 0 59 26t22 56q0 29 -30 90q31 41 82 41q43 -133 43 -245q0 -61 -15 -82q-12 -20 -80 -58q-2 0 -2 -2q0 -16 27 -16h360 q39 0 39 10l-2 2q-76 45 -96 76q-23 35 -37 125l-192 1206q-8 47 -8 88q0 53 18 84q12 20 37 31q18 8 18 14q0 14 -39 15h-342q-39 0 -39 -15q0 -4 20.5 -14t33.5 -31q18 -31 18 -84q0 -45 -18 -139l-50 -262q-29 -145 -51 -182q-25 -41 -78 -41q-12 0 -26 6q-6 4 -10 -4 q-6 -6 -4 -19.5t10 -27t17 -25.5t20 -18q49 -35 49 -62l-3 -15q-3 -16 -10 -48l-71 -379q-10 -59 -20.5 -98t-20.5 -60q-33 -70 -119 -121zM434 1944q0 -51 40 -89t93 -38t93 37.5t40 89.5q0 53 -40 93t-93 40q-25 0 -49 -10.5t-42.5 -29t-30 -43t-11.5 -50.5zM446 629 l107 606q2 4 4 0t2 -12l86 -605q-63 -53 -94 -81q-80 76 -105 92zM496 1944q0 29 21 51t50 22t50.5 -22.5t21.5 -50.5q0 -29 -21.5 -50.5t-50.5 -21.5t-50 21.5t-21 50.5z" />
<glyph unicode="&#xc6;" horiz-adv-x="1540" d="M82 12q-6 -4 5 -8t24 -4h362q16 0 25.5 5t5.5 7q-76 33 -76 135q0 49 18 111q41 127 56 180q74 8 86 -61q-33 -63 -33 -90q0 -23 19.5 -47.5t43.5 -24.5q37 0 59.5 26.5t22.5 57.5q0 29 -30 90q12 16 53 43q45 27 72 29v-289q0 -70 -50 -109q-10 -8 -33.5 -20t-64.5 -33 q-2 0 -2 -2q0 -4 10 -8h19h817q-92 309 -92 461q0 47 10 92q20 -4 21 -4q53 0 53 51q0 55 -58 55q-84 0 -118 -133q-14 -63 -27.5 -124.5t-28.5 -125.5q-47 -133 -159 -133q-59 0 -81 34t-22 126v461h58q96 0 118 -68q6 -37 17 -37q10 0 10 45v289q0 45 -10 45t-17 -37 q-20 -70 -118 -69h-58v551q12 27 76 26q119 0 172 -116q8 -14 21.5 -68.5t35.5 -149.5q27 -117 84 -116q66 0 66 57t-76 55q-2 10 -2 21v22q0 124 102 441h-903q-39 0 -39 -15q0 -4 20.5 -14t33.5 -31q18 -31 18 -84q0 -41 -31 -153l-67 -248q-33 -131 -80 -180 q-37 -43 -96 -43q-10 0 -25 6q-8 2 -12 -4q-12 -14 5 -46t38 -44q47 -29 47 -56q0 -6 -21 -69l-108 -379q-57 -205 -166 -279zM545 567l250 807v-817q-113 -51 -144 -84q-41 39 -67.5 62.5t-38.5 31.5z" />
<glyph unicode="&#xc7;" horiz-adv-x="923" d="M70 786q0 -775 346 -802q-29 -14 -46.5 -22.5t-25.5 -12.5q33 -16 50.5 -24.5t21.5 -10.5q35 -27 33 -68q-4 -53 -109 -110q92 -4 150.5 38t58.5 99q0 66 -51 111q152 16 231 135q72 115 72 289q0 139 -58 221q-63 94 -186 94q-63 0 -63 -21l11 -10t26.5 -25.5t33 -35 t29.5 -41.5q35 -66 35 -150q0 -117 -47 -194q-53 -84 -136 -84q-88 0 -139 135q-55 143 -55 405q0 344 76 584q70 223 155 223q41 0 68 -35.5t27 -89.5q0 -66 -33 -161q-10 -29 -20.5 -55.5t-20.5 -55.5l-119 -332q-47 -135 -47 -245q0 -68 28.5 -112t65.5 -44q76 0 76 76 q0 55 -76 55q-18 0 -18 35q0 53 37 174q35 106 45 123l325 686q16 29 29.5 54.5t23.5 47.5q-4 -2 -17 -7t-36 -15q-37 -16 -47 -17q-33 0 -131 39q-96 39 -158 39q-182 0 -297 -231q-119 -240 -118 -652z" />
<glyph unicode="&#xc8;" horiz-adv-x="919" d="M70 8q0 -8 45 -8h755q-92 309 -92 461q0 47 10 92q20 -4 25 -4q49 0 49 51q0 55 -57 55q-84 0 -119 -133q-14 -63 -27.5 -124.5t-27.5 -125.5q-47 -133 -160 -133q-59 0 -80.5 34t-21.5 126v461h57q96 0 119 -68q6 -37 18 -37q10 0 10 45v289q0 45 -10 45q-12 0 -18 -37 q-20 -70 -119 -69h-57v551q14 27 75 26q119 0 172 -116q8 -16 22.5 -69.5t37.5 -148.5q27 -117 82 -116q66 0 65 57q0 57 -75 55q-14 139 102 484h-735q-45 0 -45 -11q0 -12 36 -18q68 -18 68 -119v-473q0 -86 -13.5 -113.5t-64.5 -27.5q-4 0 -18 6q-8 2 -8 -4q0 -57 51 -90 q53 -31 53 -90v-564q0 -100 -68 -118q-37 -6 -36 -21zM152 2079l311 -269h22l-127 269h-206z" />
<glyph unicode="&#xc9;" horiz-adv-x="919" d="M70 8q0 -8 45 -8h755q-92 309 -92 461q0 47 10 92q20 -4 25 -4q49 0 49 51q0 55 -57 55q-84 0 -119 -133q-14 -63 -27.5 -124.5t-27.5 -125.5q-47 -133 -160 -133q-59 0 -80.5 34t-21.5 126v461h57q96 0 119 -68q6 -37 18 -37q10 0 10 45v289q0 45 -10 45q-12 0 -18 -37 q-20 -70 -119 -69h-57v551q14 27 75 26q119 0 172 -116q8 -16 22.5 -69.5t37.5 -148.5q27 -117 82 -116q66 0 65 57q0 57 -75 55q-14 139 102 484h-735q-45 0 -45 -11q0 -12 36 -18q68 -18 68 -119v-473q0 -86 -13.5 -113.5t-64.5 -27.5q-4 0 -18 6q-8 2 -8 -4q0 -57 51 -90 q53 -31 53 -90v-564q0 -100 -68 -118q-37 -6 -36 -21zM469 1810h25l309 269h-207z" />
<glyph unicode="&#xca;" horiz-adv-x="919" d="M70 8q0 -8 45 -8h755q-92 309 -92 461q0 47 10 92q20 -4 25 -4q49 0 49 51q0 55 -57 55q-84 0 -119 -133q-14 -63 -27.5 -124.5t-27.5 -125.5q-47 -133 -160 -133q-59 0 -80.5 34t-21.5 126v461h57q96 0 119 -68q6 -37 18 -37q10 0 10 45v289q0 45 -10 45q-12 0 -18 -37 q-20 -70 -119 -69h-57v551q14 27 75 26q119 0 172 -116q8 -16 22.5 -69.5t37.5 -148.5q27 -117 82 -116q66 0 65 57q0 57 -75 55q-14 139 102 484h-735q-45 0 -45 -11q0 -12 36 -18q68 -18 68 -119v-473q0 -86 -13.5 -113.5t-64.5 -27.5q-4 0 -18 6q-8 2 -8 -4q0 -57 51 -90 q53 -31 53 -90v-564q0 -100 -68 -118q-37 -6 -36 -21zM152 1812q131 14 159 25q72 20 150 98q78 -82 178 -108q70 -16 176 -17q-207 55 -293 220h-112q-59 -90 -107 -129q-43 -37 -151 -89z" />
<glyph unicode="&#xcb;" horiz-adv-x="919" d="M70 8q0 -8 45 -8h755q-92 309 -92 461q0 47 10 92q20 -4 25 -4q49 0 49 51q0 55 -57 55q-84 0 -119 -133q-14 -63 -27.5 -124.5t-27.5 -125.5q-47 -133 -160 -133q-59 0 -80.5 34t-21.5 126v461h57q96 0 119 -68q6 -37 18 -37q10 0 10 45v289q0 45 -10 45q-12 0 -18 -37 q-20 -70 -119 -69h-57v551q14 27 75 26q119 0 172 -116q8 -16 22.5 -69.5t37.5 -148.5q27 -117 82 -116q66 0 65 57q0 57 -75 55q-14 139 102 484h-735q-45 0 -45 -11q0 -12 36 -18q68 -18 68 -119v-473q0 -86 -13.5 -113.5t-64.5 -27.5q-4 0 -18 6q-8 2 -8 -4q0 -57 51 -90 q53 -31 53 -90v-564q0 -100 -68 -118q-37 -6 -36 -21zM207 1907q0 -39 29.5 -68t70.5 -29t70 28t29 69t-29 69.5t-70 28.5t-70.5 -28.5t-29.5 -69.5zM547 1907q0 -41 28.5 -69t69.5 -28t70.5 29t29.5 68q0 41 -29.5 69.5t-70.5 28.5t-69.5 -28.5t-28.5 -69.5z" />
<glyph unicode="&#xcc;" horiz-adv-x="526" d="M-49 2079l309 -269h23l-127 269h-205zM70 8q0 -8 45 -8h315q45 0 45 8q0 4 -35 21q-72 18 -71 118v1356q0 100 71 119q35 16 35 18q0 10 -45 11h-315q-45 0 -45 -11q0 -12 36 -18q68 -18 68 -119v-473q0 -86 -13.5 -113.5t-64.5 -27.5q-4 0 -18 6q-8 2 -8 -4 q0 -57 51 -90q53 -31 53 -90v-564q0 -100 -68 -118q-37 -6 -36 -21z" />
<glyph unicode="&#xcd;" horiz-adv-x="526" d="M70 8q0 -8 45 -8h315q45 0 45 8q0 4 -35 21q-72 18 -71 118v1356q0 100 71 119q35 16 35 18q0 10 -45 11h-315q-45 0 -45 -11q0 -12 36 -18q68 -18 68 -119v-473q0 -86 -13.5 -113.5t-64.5 -27.5q-4 0 -18 6q-8 2 -8 -4q0 -57 51 -90q53 -31 53 -90v-564q0 -100 -68 -118 q-37 -6 -36 -21zM287 1810h22l314 269h-207z" />
<glyph unicode="&#xce;" horiz-adv-x="526" d="M-35 1812q129 14 160 25q76 20 149 98q80 -82 177 -108q70 -16 176 -17q-201 55 -291 220h-113q-59 -90 -106 -129q-43 -37 -152 -89zM70 8q0 -8 45 -8h315q45 0 45 8q0 4 -35 21q-72 18 -71 118v1356q0 100 71 119q35 16 35 18q0 10 -45 11h-315q-45 0 -45 -11 q0 -12 36 -18q68 -18 68 -119v-473q0 -86 -13.5 -113.5t-64.5 -27.5q-4 0 -18 6q-8 2 -8 -4q0 -57 51 -90q53 -31 53 -90v-564q0 -100 -68 -118q-37 -6 -36 -21z" />
<glyph unicode="&#xcf;" horiz-adv-x="526" d="M-14 1907q0 -39 27.5 -68t68.5 -29t69.5 29t28.5 68q0 41 -28.5 69.5t-69.5 28.5t-68.5 -28.5t-27.5 -69.5zM70 8q0 -8 45 -8h315q45 0 45 8q0 4 -35 21q-72 18 -71 118v1356q0 100 71 119q35 16 35 18q0 10 -45 11h-315q-45 0 -45 -11q0 -12 36 -18q68 -18 68 -119v-473 q0 -86 -13.5 -113.5t-64.5 -27.5q-4 0 -18 6q-8 2 -8 -4q0 -57 51 -90q53 -31 53 -90v-564q0 -100 -68 -118q-37 -6 -36 -21zM322 1907q0 -41 28.5 -69t69.5 -28t70.5 29t29.5 68q0 41 -29.5 69.5t-70.5 28.5t-69.5 -28.5t-28.5 -69.5z" />
<glyph unicode="&#xd1;" horiz-adv-x="1062" d="M70 891q0 -55 53 -90q53 -31 53 -90v-564q0 -100 -67 -118q-37 -6 -37 -21q0 -8 45 -8h299q45 0 45 8q0 4 -37 21q-70 18 -70 118v1125l412 -1088q47 -127 80 -170q39 -57 102 -57q68 0 68 70q0 66 -82 45q-10 25 -17.5 44t-9.5 36q-2 10 -2 41v86v1224q0 100 70 119 q37 6 37 18q0 10 -45 11h-299q-45 0 -45 -11q0 -4 36 -18q72 -23 72 -119v-694l-344 842h-270q-45 0 -45 -11q0 -12 37 -18q68 -18 67 -119v-473q0 -106 -24 -127q-14 -14 -56 -14q-4 0 -18 6q-8 2 -8 -4zM281 1896q0 -80 57 -79q41 0 41 38q0 35 -31 54q8 12 25 12 q12 0 96 -55q82 -55 152 -56q43 0 84 50q41 51 40 100q0 39 -20 59.5t-39 20.5q-33 -2 -33 -41q0 -41 33 -43q12 -20 -24 -21q-33 0 -109 52q-78 53 -135 53q-29 0 -53.5 -13.5t-43 -34t-29.5 -46t-11 -50.5z" />
<glyph unicode="&#xd2;" horiz-adv-x="878" d="M70 825q0 -375 94 -602q100 -246 285 -246q184 0 286 246q94 227 94 602q0 377 -94 598q-102 246 -286 246t-285 -246q-94 -221 -94 -598zM117 2079l311 -269h23l-127 269h-207zM262 825q0 354 41 506q40 148 146 148t145 -150q41 -152 41 -504q0 -356 -43 -506 q-39 -150 -143 -149q-104 0 -146 152q-41 147 -41 503z" />
<glyph unicode="&#xd3;" horiz-adv-x="878" d="M70 825q0 -375 94 -602q100 -246 285 -246q184 0 286 246q94 227 94 602q0 377 -94 598q-102 246 -286 246t-285 -246q-94 -221 -94 -598zM262 825q0 354 41 506q40 148 146 148t145 -150q41 -152 41 -504q0 -356 -43 -506q-39 -150 -143 -149q-104 0 -146 152 q-41 147 -41 503zM465 1810h22l312 269h-207z" />
<glyph unicode="&#xd4;" horiz-adv-x="878" d="M70 825q0 -375 94 -602q100 -246 285 -246q184 0 286 246q94 227 94 602q0 377 -94 598q-102 246 -286 246t-285 -246q-94 -221 -94 -598zM147 1812q131 14 160 25q72 20 150 98q117 -125 352 -125q-205 59 -293 220h-110q-59 -90 -107 -129q-43 -37 -152 -89zM262 825 q0 354 41 506q40 148 146 148t145 -150q41 -152 41 -504q0 -356 -43 -506q-39 -150 -143 -149q-104 0 -146 152q-41 147 -41 503z" />
<glyph unicode="&#xd5;" horiz-adv-x="878" d="M70 825q0 -375 94 -602q100 -246 285 -246q184 0 286 246q94 227 94 602q0 377 -94 598q-102 246 -286 246t-285 -246q-94 -221 -94 -598zM193 1896q0 -80 55 -79q41 0 41 38q0 35 -29 54q8 12 25 12q12 0 92 -55q82 -55 153 -56q45 0 86 50q41 51 41 100 q0 39 -20.5 59.5t-40.5 20.5q-33 -2 -33 -41q0 -41 33 -43q8 -20 -23 -21q-33 0 -110 52q-78 53 -135 53q-29 0 -53.5 -13.5t-43 -34t-28.5 -46t-10 -50.5zM262 825q0 354 41 506q40 148 146 148t145 -150q41 -152 41 -504q0 -356 -43 -506q-39 -150 -143 -149 q-104 0 -146 152q-41 147 -41 503z" />
<glyph unicode="&#xd6;" horiz-adv-x="878" d="M70 825q0 -375 94 -602q100 -246 285 -246q184 0 286 246q94 227 94 602q0 377 -94 598q-102 246 -286 246t-285 -246q-94 -221 -94 -598zM186 1907q0 -39 30 -68t71 -29t69.5 28t28.5 69t-28.5 69.5t-69.5 28.5t-71 -28.5t-30 -69.5zM262 825q0 354 41 506 q40 148 146 148t145 -150q41 -152 41 -504q0 -356 -43 -506q-39 -150 -143 -149q-104 0 -146 152q-41 147 -41 503zM526 1907q0 -41 29 -69t70 -28t69.5 29t28.5 68q0 41 -28.5 69.5t-69.5 28.5t-70 -28.5t-29 -69.5z" />
<glyph unicode="&#xd7;" horiz-adv-x="727" d="M135 516l62 -61l163 166l166 -166l62 61l-166 166l166 166l-62 61l-166 -166l-163 166l-62 -61l166 -166z" />
<glyph unicode="&#xd8;" horiz-adv-x="878" d="M70 825q0 -606 219 -788l-15 -125h97l10 78q45 -12 68 -13q184 0 286 246q94 227 94 602q0 285 -59 494q-61 221 -178 303l16 117h-100l-8 -74q-16 2 -28.5 3t-22.5 1q-184 0 -285 -246q-94 -221 -94 -598zM262 825q0 354 41 506q39 147 146 148q18 0 24 -6l-154 -1201 q-57 133 -57 553zM406 176l159 1229q70 -127 70 -580q0 -356 -43 -506q-39 -150 -143 -149q-23 0 -43 6z" />
<glyph unicode="&#xd9;" horiz-adv-x="1056" d="M70 891q0 -57 51 -90q53 -31 53 -90v-326q0 -193 95.5 -300.5t269.5 -107.5t268 108t94 300v1118q0 100 70 119q37 6 37 18q0 10 -47 11h-316q-47 0 -47 -11q0 -4 37 -18q72 -19 72 -119v-1145q0 -215 -168 -215q-170 0 -170 215v1145q0 100 71 119q35 16 35 18 q0 10 -45 11h-315q-45 0 -45 -11q0 -12 36 -18q68 -18 68 -119v-473q0 -86 -13.5 -113.5t-64.5 -27.5q-4 0 -18 6q-8 2 -8 -4zM203 2079l311 -269h25l-129 269h-207z" />
<glyph unicode="&#xda;" horiz-adv-x="1056" d="M70 891q0 -57 51 -90q53 -31 53 -90v-326q0 -193 95.5 -300.5t269.5 -107.5t268 108t94 300v1118q0 100 70 119q37 6 37 18q0 10 -47 11h-316q-47 0 -47 -11q0 -4 37 -18q72 -19 72 -119v-1145q0 -215 -168 -215q-170 0 -170 215v1145q0 100 71 119q35 16 35 18 q0 10 -45 11h-315q-45 0 -45 -11q0 -12 36 -18q68 -18 68 -119v-473q0 -86 -13.5 -113.5t-64.5 -27.5q-4 0 -18 6q-8 2 -8 -4zM551 1810h24l310 269h-207z" />
<glyph unicode="&#xdb;" horiz-adv-x="1056" d="M70 891q0 -57 51 -90q53 -31 53 -90v-326q0 -193 95.5 -300.5t269.5 -107.5t268 108t94 300v1118q0 100 70 119q37 6 37 18q0 10 -47 11h-316q-47 0 -47 -11q0 -4 37 -18q72 -19 72 -119v-1145q0 -215 -168 -215q-170 0 -170 215v1145q0 100 71 119q35 16 35 18 q0 10 -45 11h-315q-45 0 -45 -11q0 -12 36 -18q68 -18 68 -119v-473q0 -86 -13.5 -113.5t-64.5 -27.5q-4 0 -18 6q-8 2 -8 -4zM240 1812q131 14 161 25q74 20 148 98q78 -82 178 -108q70 -16 176 -17q-209 59 -291 220h-112q-59 -90 -107 -129q-43 -37 -153 -89z" />
<glyph unicode="&#xdc;" horiz-adv-x="1056" d="M70 891q0 -57 51 -90q53 -31 53 -90v-326q0 -193 95.5 -300.5t269.5 -107.5t268 108t94 300v1118q0 100 70 119q37 6 37 18q0 10 -47 11h-316q-47 0 -47 -11q0 -4 37 -18q72 -19 72 -119v-1145q0 -215 -168 -215q-170 0 -170 215v1145q0 100 71 119q35 16 35 18 q0 10 -45 11h-315q-45 0 -45 -11q0 -12 36 -18q68 -18 68 -119v-473q0 -86 -13.5 -113.5t-64.5 -27.5q-4 0 -18 6q-8 2 -8 -4zM264 1907q0 -39 30 -68t71 -29t69.5 28t28.5 69t-28.5 69.5t-69.5 28.5t-71 -28.5t-30 -69.5zM604 1907q0 -41 29 -69t69 -28q41 0 70 29t29 68 q0 41 -29 69.5t-70 28.5t-69.5 -28.5t-28.5 -69.5z" />
<glyph unicode="&#xdd;" horiz-adv-x="983" d="M37 1640q0 6 51 -36q51 -41 76 -123l112 -369q37 -121 37 -168q0 -12 -4 -24q-23 -37 -51 -31h-31t6 2q-10 0 -10 -17q0 -35 43 -55q27 -12 52.5 -24.5t52.5 -22.5q10 -16 10 -145v-480q0 -100 -72 -118q-35 -16 -35 -21q0 -8 45 -8h316q45 0 45 8q0 10 -35 21 q-70 20 -70 118v568l259 778q20 61 79 109q53 41 54 38q0 10 -19 11h-370q-27 0 -27 -11q0 -2 41 -30q43 -29 43 -78q0 -23 -8 -47l-125 -459l-123 467q-6 20 -6 39q0 51 43 82q45 31 45 26q0 10 -35 11h-383q-6 -4 -6 -11zM516 1810h25l313 269h-209z" />
<glyph unicode="&#xde;" horiz-adv-x="993" d="M70 8q0 -8 45 -8h315q45 0 45 8q0 4 -35 21q-72 18 -71 118v1174q0 201 69 201h150q160 0 160 -287q0 -135 -95 -279q-45 -57 -89 -112.5t-89 -110.5q-94 -125 -94 -209q0 -115 84 -114q20 0 40.5 16t20.5 47q1 52 -77 62q6 78 135 192q186 160 235 221q125 152 125 342 q0 360 -379 361h-450q-45 0 -45 -11q0 -12 36 -18q68 -18 68 -119v-473q0 -86 -13.5 -113.5t-64.5 -27.5q-4 0 -18 6q-8 2 -8 -4q0 -57 51 -90q53 -31 53 -90v-564q0 -100 -68 -118q-37 -6 -36 -21z" />
<glyph unicode="&#xdf;" horiz-adv-x="790" d="M18 0h258q-37 37 -45 53q-4 17 -4 64v1091q0 162 38 229.5t120 67.5q92 0 145 -104q37 -80 37 -174q0 -152 -94 -219q-49 -35 -190 -70q-12 -2 -19 -23q-10 -23 0 -36q137 0 234 -170q86 -147 86 -306q0 -109 -35 -188q-37 -88 -103 -88q-47 0 -83.5 43t-36.5 104 q0 45 16 74t35 29q6 0 21.5 -8.5t23.5 -8.5q49 0 49 48q0 55 -65 55q-59 0 -101.5 -62.5t-42.5 -152.5q0 -119 64 -185q57 -63 141 -63q135 0 213 141q61 119 61 285q0 147 -67 274q-78 152 -219 201q264 96 264 363q0 82 -22.5 150.5t-64.5 115.5t-103.5 73.5t-137.5 26.5 q-184 0 -258 -110q-63 -94 -63 -299v-1104q0 -51 -7 -64q-2 -10 -45 -53z" />
<glyph unicode="&#xe0;" horiz-adv-x="720" d="M33 1489l311 -270h23l-127 270h-207zM70 260q0 -131 67 -205q57 -63 150 -63q98 0 194 102q0 -94 13 -94h198q45 0 45 8q0 4 -37 21q-71 19 -71 121v649q0 293 -256 293q-111 0 -179.5 -61.5t-68.5 -172.5q0 -86 39 -142.5t108 -56.5q29 0 47 19q-66 94 -65 149 q0 49 36 88t77 39q113 0 112 -163q0 -20 -2 -45t-2 -29v-283q0 -295 -143 -295q-47 0 -74 37t-27 86q0 94 58 176q29 35 55.5 68t52.5 65q57 72 58 142q0 125 -72 125q-51 0 -51 -45q0 -29 26 -43q41 -23 45 -29q-12 -57 -100 -127q-63 -49 -101 -81t-52 -46 q-80 -90 -80 -207z" />
<glyph unicode="&#xe1;" horiz-adv-x="720" d="M70 260q0 -131 67 -205q57 -63 150 -63q98 0 194 102q0 -94 13 -94h198q45 0 45 8q0 4 -37 21q-71 19 -71 121v649q0 293 -256 293q-111 0 -179.5 -61.5t-68.5 -172.5q0 -86 39 -142.5t108 -56.5q29 0 47 19q-66 94 -65 149q0 49 36 88t77 39q113 0 112 -163 q0 -20 -2 -45t-2 -29v-283q0 -295 -143 -295q-47 0 -74 37t-27 86q0 94 58 176q29 35 55.5 68t52.5 65q57 72 58 142q0 125 -72 125q-51 0 -51 -45q0 -29 26 -43q41 -23 45 -29q-12 -57 -100 -127q-63 -49 -101 -81t-52 -46q-80 -90 -80 -207zM383 1219h23l311 270h-207z " />
<glyph unicode="&#xe2;" horiz-adv-x="720" d="M31 1219q131 14 159 24q76 25 150 98q78 -82 178 -108q70 -16 176 -16q-207 59 -293 219h-112q-57 -86 -107 -127q-23 -20 -60.5 -42t-90.5 -48zM70 260q0 -131 67 -205q57 -63 150 -63q98 0 194 102q0 -94 13 -94h198q45 0 45 8q0 4 -37 21q-71 19 -71 121v649 q0 293 -256 293q-111 0 -179.5 -61.5t-68.5 -172.5q0 -86 39 -142.5t108 -56.5q29 0 47 19q-66 94 -65 149q0 49 36 88t77 39q113 0 112 -163q0 -20 -2 -45t-2 -29v-283q0 -295 -143 -295q-47 0 -74 37t-27 86q0 94 58 176q29 35 55.5 68t52.5 65q57 72 58 142 q0 125 -72 125q-51 0 -51 -45q0 -29 26 -43q41 -23 45 -29q-12 -57 -100 -127q-63 -49 -101 -81t-52 -46q-80 -90 -80 -207z" />
<glyph unicode="&#xe3;" horiz-adv-x="720" d="M70 260q0 -131 67 -205q57 -63 150 -63q98 0 194 102q0 -94 13 -94h198q45 0 45 8q0 4 -37 21q-71 19 -71 121v649q0 293 -256 293q-111 0 -179.5 -61.5t-68.5 -172.5q0 -86 39 -142.5t108 -56.5q29 0 47 19q-66 94 -65 149q0 49 36 88t77 39q113 0 112 -163 q0 -20 -2 -45t-2 -29v-283q0 -295 -143 -295q-47 0 -74 37t-27 86q0 94 58 176q29 35 55.5 68t52.5 65q57 72 58 142q0 125 -72 125q-51 0 -51 -45q0 -29 26 -43q41 -23 45 -29q-12 -57 -100 -127q-63 -49 -101 -81t-52 -46q-80 -90 -80 -207zM143 1303q0 -80 58 -80 q41 0 41 39q0 33 -31 55q8 12 27 12q14 0 92 -57q82 -55 153 -55q45 0 86 49q39 47 39 102q0 39 -20.5 59.5t-38.5 20.5q-35 -4 -35 -41q0 -39 35 -43q10 -23 -25 -23q-31 0 -108.5 53.5t-134.5 53.5q-29 0 -53.5 -12.5t-43 -33t-30 -47t-11.5 -52.5z" />
<glyph unicode="&#xe4;" horiz-adv-x="720" d="M70 260q0 -131 67 -205q57 -63 150 -63q98 0 194 102q0 -94 13 -94h198q45 0 45 8q0 4 -37 21q-71 19 -71 121v649q0 293 -256 293q-111 0 -179.5 -61.5t-68.5 -172.5q0 -86 39 -142.5t108 -56.5q29 0 47 19q-66 94 -65 149q0 49 36 88t77 39q113 0 112 -163 q0 -20 -2 -45t-2 -29v-283q0 -295 -143 -295q-47 0 -74 37t-27 86q0 94 58 176q29 35 55.5 68t52.5 65q57 72 58 142q0 125 -72 125q-51 0 -51 -45q0 -29 26 -43q41 -23 45 -29q-12 -57 -100 -127q-63 -49 -101 -81t-52 -46q-80 -90 -80 -207zM109 1315q0 -41 28.5 -69.5 t69.5 -28.5t69.5 28.5t28.5 69.5t-28.5 69.5t-69.5 28.5t-69.5 -28.5t-28.5 -69.5zM446 1315q0 -41 29 -69.5t70 -28.5t70.5 28.5t29.5 69.5t-29.5 69.5t-70.5 28.5t-70 -28.5t-29 -69.5z" />
<glyph unicode="&#xe5;" horiz-adv-x="720" d="M70 260q0 -131 67 -205q57 -63 150 -63q98 0 194 102q0 -94 13 -94h198q45 0 45 8q0 4 -37 21q-71 19 -71 121v649q0 293 -256 293q-111 0 -179.5 -61.5t-68.5 -172.5q0 -86 39 -142.5t108 -56.5q29 0 47 19q-66 94 -65 149q0 49 36 88t77 39q113 0 112 -163 q0 -20 -2 -45t-2 -29v-283q0 -295 -143 -295q-47 0 -74 37t-27 86q0 94 58 176q29 35 55.5 68t52.5 65q57 72 58 142q0 125 -72 125q-51 0 -51 -45q0 -29 26 -43q41 -23 45 -29q-12 -57 -100 -127q-63 -49 -101 -81t-52 -46q-80 -90 -80 -207zM252 1352q0 -51 40 -90t93 -39 t92 37.5t39 91.5q0 53 -39 93t-92 40q-25 0 -49.5 -10.5t-43 -29t-29.5 -43t-11 -50.5zM313 1352q0 29 21.5 50t50.5 21t51.5 -21.5t22.5 -49.5q0 -29 -22.5 -51.5t-51.5 -22.5t-50.5 22.5t-21.5 51.5z" />
<glyph unicode="&#xe6;" horiz-adv-x="1089" d="M70 260q0 -131 67 -205q57 -63 150 -63q141 0 237 160q70 -162 224 -162q137 0 210 86q68 82 68 211q0 186 -158 186q-10 0 -19 -1t-20 -3q55 -78 56 -152q0 -66 -39 -118q-41 -55 -84 -56q-76 0 -108.5 69t-32.5 245q0 494 159 493q111 0 111 -155q0 -94 -64 -152 l-116 -86q-63 -55 -64 -145q0 -47 29 -79t61 -32q27 0 44.5 20.5t17.5 43.5q0 43 -39 43q-12 0 -27.5 -12.5t-19.5 -12.5q-14 0 -15 37q0 88 111 123q45 14 100.5 19t124.5 1q6 63 6 119q0 199 -71 307q-68 100 -191 101q-121 0 -196 -101q-66 102 -209 103 q-111 0 -179.5 -61.5t-68.5 -172.5q0 -86 39 -142.5t108 -56.5q29 0 47 19q-66 94 -65 149q0 49 36 88t77 39q113 0 112 -163q0 -20 -2 -45t-2 -29v-283q0 -295 -143 -295q-47 0 -74 37t-27 86q0 94 58 176q29 35 55.5 68t52.5 65q57 72 58 142q0 125 -72 125q-51 0 -51 -45 q0 -29 26 -43q41 -23 45 -29q-12 -57 -100 -127q-63 -49 -101 -81t-52 -46q-80 -90 -80 -207z" />
<glyph unicode="&#xe7;" horiz-adv-x="679" d="M70 537q0 -484 231 -539q-23 -10 -37 -17.5t-20 -11.5q59 -23 71 -32q35 -27 33 -66q-4 -37 -35 -64q-23 -18 -73 -49q92 -2 150.5 39t58.5 97q0 47 -41 100q223 18 223 289q0 37 -13.5 70.5t-35 60t-52 42t-63.5 15.5q-43 0 -51 -33q82 -14 82 -121q0 -170 -129 -170 q-82 0 -115 80q-35 92 -35 336q0 221 43 311q37 78 123 78q43 0 73.5 -41t30.5 -88q0 -63 -55 -143q35 -18 76 -6q53 27 72 45q37 45 36 131q0 117 -70.5 179.5t-176.5 62.5q-301 0 -301 -555z" />
<glyph unicode="&#xe8;" horiz-adv-x="688" d="M37 1489l311 -270h23l-127 270h-207zM70 483q0 -244 77 -374q70 -117 199 -117q137 0 211 86q68 82 68 211q0 88 -42 137t-114 49q-10 0 -20.5 -1t-20.5 -3q57 -76 57 -152q0 -59 -41 -116q-41 -55 -82 -56q-76 0 -109.5 69t-33.5 243q0 494 160 493q111 0 110 -155 q0 -94 -63 -152l-117 -86q-63 -55 -63 -143q0 -47 28.5 -80t61.5 -33q25 0 44 20.5t19 43.5q0 43 -39 43q-14 0 -28.5 -12.5t-18.5 -12.5q-16 0 -16 37q0 86 111 123q45 14 100 19t125 1q6 63 6 119q0 199 -72 307q-68 100 -190 101q-307 0 -307 -609z" />
<glyph unicode="&#xe9;" horiz-adv-x="688" d="M70 483q0 -244 77 -374q70 -117 199 -117q137 0 211 86q68 82 68 211q0 88 -42 137t-114 49q-10 0 -20.5 -1t-20.5 -3q57 -76 57 -152q0 -59 -41 -116q-41 -55 -82 -56q-76 0 -109.5 69t-33.5 243q0 494 160 493q111 0 110 -155q0 -94 -63 -152l-117 -86 q-63 -55 -63 -143q0 -47 28.5 -80t61.5 -33q25 0 44 20.5t19 43.5q0 43 -39 43q-14 0 -28.5 -12.5t-18.5 -12.5q-16 0 -16 37q0 86 111 123q45 14 100 19t125 1q6 63 6 119q0 199 -72 307q-68 100 -190 101q-307 0 -307 -609zM369 1221h22l314 270h-207z" />
<glyph unicode="&#xea;" horiz-adv-x="688" d="M61 1219q133 14 162 24q74 25 148 98q119 -125 352 -124q-201 61 -291 219h-110q-57 -86 -107 -127q-23 -20 -61.5 -42t-92.5 -48zM70 483q0 -244 77 -374q70 -117 199 -117q137 0 211 86q68 82 68 211q0 88 -42 137t-114 49q-10 0 -20.5 -1t-20.5 -3q57 -76 57 -152 q0 -59 -41 -116q-41 -55 -82 -56q-76 0 -109.5 69t-33.5 243q0 494 160 493q111 0 110 -155q0 -94 -63 -152l-117 -86q-63 -55 -63 -143q0 -47 28.5 -80t61.5 -33q25 0 44 20.5t19 43.5q0 43 -39 43q-14 0 -28.5 -12.5t-18.5 -12.5q-16 0 -16 37q0 86 111 123q45 14 100 19 t125 1q6 63 6 119q0 199 -72 307q-68 100 -190 101q-307 0 -307 -609z" />
<glyph unicode="&#xeb;" horiz-adv-x="688" d="M70 483q0 -244 77 -374q70 -117 199 -117q137 0 211 86q68 82 68 211q0 88 -42 137t-114 49q-10 0 -20.5 -1t-20.5 -3q57 -76 57 -152q0 -59 -41 -116q-41 -55 -82 -56q-76 0 -109.5 69t-33.5 243q0 494 160 493q111 0 110 -155q0 -94 -63 -152l-117 -86 q-63 -55 -63 -143q0 -47 28.5 -80t61.5 -33q25 0 44 20.5t19 43.5q0 43 -39 43q-14 0 -28.5 -12.5t-18.5 -12.5q-16 0 -16 37q0 86 111 123q45 14 100 19t125 1q6 63 6 119q0 199 -72 307q-68 100 -190 101q-307 0 -307 -609zM113 1315q0 -41 28.5 -69.5t69.5 -28.5 t69.5 28.5t28.5 69.5t-28.5 69.5t-69.5 28.5t-69.5 -28.5t-28.5 -69.5zM451 1315q0 -41 28.5 -69.5t69.5 -28.5t71.5 28.5t30.5 69.5t-30.5 69.5t-71.5 28.5t-69.5 -28.5t-28.5 -69.5z" />
<glyph unicode="&#xec;" horiz-adv-x="499" d="M-88 1489l309 -270h23l-127 270h-205zM70 8q0 -8 45 -8h288q45 0 46 8q0 10 -37 21q-70 20 -70 118v932h-227q-45 0 -45 -8q0 -12 36 -18q68 -23 68 -119v-787q0 -100 -68 -118q-37 -6 -36 -21z" />
<glyph unicode="&#xed;" horiz-adv-x="499" d="M70 8q0 -8 45 -8h288q45 0 46 8q0 10 -37 21q-70 20 -70 118v932h-227q-45 0 -45 -8q0 -12 36 -18q68 -23 68 -119v-787q0 -100 -68 -118q-37 -6 -36 -21zM227 1217h23l313 270h-207z" />
<glyph unicode="&#xee;" horiz-adv-x="499" d="M-51 1219q129 14 157 24q74 25 148 98q119 -125 354 -124q-205 61 -291 219h-112q-57 -86 -107 -127q-23 -20 -60.5 -42t-88.5 -48zM70 8q0 -8 45 -8h288q45 0 46 8q0 10 -37 21q-70 20 -70 118v932h-227q-45 0 -45 -8q0 -12 36 -18q68 -23 68 -119v-787q0 -100 -68 -118 q-37 -6 -36 -21z" />
<glyph unicode="&#xef;" horiz-adv-x="499" d="M-41 1315q0 -41 27.5 -69.5t68.5 -28.5q43 0 72 28.5t29 69.5t-29 69.5t-72 28.5q-41 0 -68.5 -28.5t-27.5 -69.5zM70 8q0 -8 45 -8h288q45 0 46 8q0 10 -37 21q-70 20 -70 118v932h-227q-45 0 -45 -8q0 -12 36 -18q68 -23 68 -119v-787q0 -100 -68 -118q-37 -6 -36 -21z M297 1315q0 -41 27.5 -69.5t68.5 -28.5t72 28.5t31 69.5t-31 69.5t-72 28.5t-68.5 -28.5t-27.5 -69.5z" />
<glyph unicode="&#xf1;" horiz-adv-x="874" d="M70 1071q0 -12 36 -18q68 -23 68 -119v-934h229q45 0 46 8q0 10 -37 21q-70 20 -70 118v678q0 119 104 119t105 -127v-817h229q45 0 45 8q0 4 -37 21q-72 23 -71 118v611q0 334 -213 334q-98 0 -166 -103v90h-223q-45 0 -45 -8zM207 1303q0 -80 57 -80q41 0 41 39 q0 33 -29 55q8 12 25 12q14 0 92 -57q82 -55 154 -55q45 0 86 49q39 47 39 102q0 39 -20.5 59.5t-37.5 20.5q-35 -4 -34 -41q-1 -39 34 -43q10 -23 -26 -23q-31 0 -109 53.5t-135 53.5q-29 0 -53.5 -12.5t-43 -33t-29.5 -47t-11 -52.5z" />
<glyph unicode="&#xf2;" horiz-adv-x="712" d="M33 1489l311 -270h23l-127 270h-207zM70 543q0 -551 297 -551t297 551q0 549 -297 549t-297 -549zM225 543q1 409 142 409t141 -409q0 -416 -141 -416t-142 416z" />
<glyph unicode="&#xf3;" horiz-adv-x="712" d="M70 543q0 -551 297 -551t297 551q0 549 -297 549t-297 -549zM225 543q1 409 142 409t141 -409q0 -416 -141 -416t-142 416zM362 1219h23l313 270h-209z" />
<glyph unicode="&#xf4;" horiz-adv-x="712" d="M70 543q0 -551 297 -551t297 551q0 549 -297 549t-297 -549zM78 1219q133 14 162 24q74 25 147 98q78 -82 178 -108q70 -16 176 -16q-207 59 -292 219h-111q-57 -86 -107 -127q-23 -20 -61.5 -42t-91.5 -48zM225 543q1 409 142 409t141 -409q0 -416 -141 -416t-142 416z " />
<glyph unicode="&#xf5;" horiz-adv-x="712" d="M70 543q0 -551 297 -551t297 551q0 549 -297 549t-297 -549zM121 1303q0 -37 17.5 -58.5t37.5 -21.5q43 0 43 39q0 33 -29 55q8 12 23 12q14 0 96 -57q82 -55 152 -55q45 0 86 49q39 47 39 102q0 39 -20.5 59.5t-39.5 20.5q-33 -2 -32 -41q-1 -41 32 -43q10 -23 -24 -23 q-31 0 -109 53.5t-135 53.5q-29 0 -53.5 -12.5t-43 -33t-29.5 -47t-11 -52.5zM225 543q1 409 142 409t141 -409q0 -416 -141 -416t-142 416z" />
<glyph unicode="&#xf6;" horiz-adv-x="712" d="M70 543q0 -551 297 -551t297 551q0 549 -297 549t-297 -549zM100 1315q0 -41 30 -69.5t71 -28.5t69.5 28.5t28.5 69.5t-28.5 69.5t-69.5 28.5t-71 -28.5t-30 -69.5zM225 543q1 409 142 409t141 -409q0 -416 -141 -416t-142 416zM440 1315q0 -41 29 -69.5t70 -28.5 t69.5 28.5t28.5 69.5t-28.5 69.5t-69.5 28.5t-70 -28.5t-29 -69.5z" />
<glyph unicode="&#xf7;" horiz-adv-x="727" d="M150 434h311l39 86h-312zM250 94q-2 -37 19.5 -65.5t52.5 -28.5q71 0 71 94q0 84 -69 86q-68 2 -74 -86zM250 774q-2 -37 19.5 -65.5t52.5 -28.5q71 0 71 94q0 84 -69 86q-68 2 -74 -86z" />
<glyph unicode="&#xf8;" horiz-adv-x="712" d="M70 543q0 -423 176 -527l-13 -98h76q4 29 6 48.5t4 29.5q16 -2 27.5 -3t20.5 -1q297 0 297 551q0 438 -195 528q4 39 8 64.5t6 35.5h-80l-12 -79h-24q-297 0 -297 -549zM225 543q0 410 142 409h6l-101 -751q-47 100 -47 342zM340 131q39 287 65.5 480.5t40.5 297.5 q61 -80 62 -366q0 -416 -141 -416q-6 0 -27 4z" />
<glyph unicode="&#xf9;" horiz-adv-x="786" d="M68 324q0 -332 231 -332q96 0 162 63v-55h227q47 0 47 8q0 4 -37 21q-72 18 -71 118v787q0 100 71 119q37 8 37 18q0 8 -47 8h-289q-45 0 -45 -8t35 -18q72 -19 72 -119v-578q0 -233 -107 -233q-131 0 -131 260q0 150 37 350q20 102 29.5 172t9.5 111q0 141 -47 213 q-37 53 -94 53q-63 0 -64 -51q0 -18 15.5 -33.5t33.5 -15.5q6 0 20.5 4t20.5 4q43 0 43 -105q0 -47 -80 -301q-80 -252 -79 -460zM80 1604l311 -271h25l-129 271h-207z" />
<glyph unicode="&#xfa;" horiz-adv-x="786" d="M68 324q0 -332 231 -332q96 0 162 63v-55h227q47 0 47 8q0 4 -37 21q-72 18 -71 118v787q0 100 71 119q37 8 37 18q0 8 -47 8h-289q-45 0 -45 -8t35 -18q72 -19 72 -119v-578q0 -233 -107 -233q-131 0 -131 260q0 150 37 350q20 102 29.5 172t9.5 111q0 141 -47 213 q-37 53 -94 53q-63 0 -64 -51q0 -18 15.5 -33.5t33.5 -15.5q6 0 20.5 4t20.5 4q43 0 43 -105q0 -47 -80 -301q-80 -252 -79 -460zM428 1333h23l311 271h-207z" />
<glyph unicode="&#xfb;" horiz-adv-x="786" d="M68 324q0 -332 231 -332q96 0 162 63v-55h227q47 0 47 8q0 4 -37 21q-72 18 -71 118v787q0 100 71 119q37 8 37 18q0 8 -47 8h-289q-45 0 -45 -8t35 -18q72 -19 72 -119v-578q0 -233 -107 -233q-131 0 -131 260q0 150 37 350q20 102 29.5 172t9.5 111q0 141 -47 213 q-37 53 -94 53q-63 0 -64 -51q0 -18 15.5 -33.5t33.5 -15.5q6 0 20.5 4t20.5 4q43 0 43 -105q0 -47 -80 -301q-80 -252 -79 -460zM82 1333q131 14 162 25q74 20 147 98q78 -82 178 -108q70 -16 176 -17q-203 57 -290 217h-113q-29 -45 -56.5 -75.5t-49.5 -51.5 q-43 -37 -154 -88z" />
<glyph unicode="&#xfc;" horiz-adv-x="786" d="M68 324q0 -332 231 -332q96 0 162 63v-55h227q47 0 47 8q0 4 -37 21q-72 18 -71 118v787q0 100 71 119q37 8 37 18q0 8 -47 8h-289q-45 0 -45 -8t35 -18q72 -19 72 -119v-578q0 -233 -107 -233q-131 0 -131 260q0 76 7.5 149.5t21.5 147.5q31 150 31 229q0 141 -47 213 q-37 53 -95 54q-63 0 -63 -52q0 -18 15.5 -33.5t33.5 -15.5q6 0 20.5 4t22.5 4q47 0 41 -104q-2 -29 -11.5 -67t-29.5 -89q-47 -131 -68 -200q-35 -145 -34 -299zM109 1315q0 -41 28.5 -69.5t69.5 -28.5t69.5 28.5t28.5 69.5t-28.5 69.5t-69.5 28.5t-69.5 -28.5t-28.5 -69.5 zM446 1315q0 -41 29 -69.5t70 -28.5t70.5 28.5t29.5 69.5t-29.5 69.5t-70.5 28.5t-70 -28.5t-29 -69.5z" />
<glyph unicode="&#xfd;" horiz-adv-x="823" d="M35 1071q0 -10 37 -18q57 -12 82 -133l188 -920q-16 -88 -25.5 -139t-13.5 -68q-27 -94 -76 -94q-55 0 -55 61q0 57 72 107q-12 27 -70 27q-137 0 -137 -152q0 -86 46 -134t126 -48q127 0 186 123q20 45 50 160.5t69 303.5l156 762q25 119 96 144q37 6 37 18q0 8 -45 8 h-258q-45 0 -45 -8q0 -10 37 -18q37 -10 36 -72q0 -35 -8 -74l-100 -522l-101 524q-6 33 -6 62q0 72 43 82q35 10 35 18t-45 8h-266q-45 0 -45 -8zM432 1219h25l309 270h-207z" />
<glyph unicode="&#xfe;" horiz-adv-x="786" d="M68 324q0 -332 231 -332q96 0 162 63v-55h227q47 0 47 8q0 4 -37 21q-72 18 -71 118v787q0 100 71 119q37 8 37 18q0 8 -47 8h-289q-45 0 -45 -8t35 -18q72 -19 72 -119v-578q0 -233 -107 -233q-131 0 -131 260q0 150 37 350q20 102 29.5 172t9.5 111q0 141 -47 213 q-37 53 -94 53q-63 0 -64 -51q0 -18 15.5 -33.5t33.5 -15.5q6 0 20.5 4t20.5 4q43 0 43 -105q0 -47 -80 -301q-80 -252 -79 -460zM150 1427q0 -39 28.5 -67.5t69.5 -28.5t69.5 27.5t28.5 68.5q0 43 -28.5 72t-69.5 29t-69.5 -29t-28.5 -72zM487 1427q0 -41 29 -68.5 t70 -27.5t70.5 29t29.5 67q0 43 -29.5 72t-70.5 29t-70 -29t-29 -72z" />
<glyph unicode="&#xff;" horiz-adv-x="823" d="M35 1071q0 -10 37 -18q57 -12 82 -133l188 -920q-16 -88 -25.5 -139t-13.5 -68q-27 -94 -76 -94q-55 0 -55 61q0 57 72 107q-12 27 -70 27q-137 0 -137 -152q0 -86 46 -134t126 -48q127 0 186 123q20 45 50 160.5t69 303.5l156 762q25 119 96 144q37 6 37 18q0 8 -45 8 h-258q-45 0 -45 -8q0 -10 37 -18q37 -10 36 -72q0 -35 -8 -74l-100 -522l-101 524q-6 33 -6 62q0 72 43 82q35 10 35 18t-45 8h-266q-45 0 -45 -8zM160 1315q0 -41 29.5 -69.5t70.5 -28.5t69.5 28.5t28.5 69.5t-28.5 69.5t-69.5 28.5t-70.5 -28.5t-29.5 -69.5zM500 1315 q0 -41 27.5 -69.5t68.5 -28.5q43 0 72.5 28.5t29.5 69.5t-29.5 69.5t-72.5 28.5q-41 0 -68.5 -28.5t-27.5 -69.5z" />
<glyph unicode="&#x152;" horiz-adv-x="1374" d="M70 825q0 -375 94 -602q100 -246 285 -246q10 0 26.5 3.5t33.5 8.5t32.5 8t25.5 3h758q-92 297 -92 459q0 49 10 94q20 -4 21 -4q51 0 51 51q0 55 -55 55q-86 0 -121 -133q-14 -63 -26.5 -124.5t-27.5 -125.5q-47 -133 -161 -133q-68 0 -88 49q-12 31 -13 111v461h56 q100 0 118 -68q6 -37 19 -37q10 0 10 45v289q0 45 -10 45t-19 -37q-20 -70 -118 -69h-56v551q12 27 76 26q119 0 172 -116q8 -14 21.5 -68.5t35.5 -149.5q27 -117 84 -116q63 0 64 57q0 57 -76 55q-14 127 103 484h-736q-20 0 -58 9t-60 9q-184 0 -285 -246 q-94 -221 -94 -598zM252 825q0 377 43 530.5t154 153.5q145 0 180 -305v-758q-35 -311 -180 -311q-109 0 -154 156q-43 156 -43 534z" />
<glyph unicode="&#x153;" horiz-adv-x="1128" d="M70 543q0 -551 297 -551q137 0 213 125q72 -127 206 -127q137 0 211 86q68 82 68 211q0 186 -158 186q-10 0 -19 -1t-20 -3q55 -78 56 -152q0 -66 -39 -118q-41 -55 -84 -56q-76 0 -109 69t-33 245q0 494 160 493q111 0 111 -155q0 -94 -64 -152l-116 -86 q-63 -55 -64 -145q0 -47 28.5 -79t61.5 -32q27 0 44.5 20.5t17.5 43.5q0 43 -39 43q-12 0 -27.5 -12.5t-19.5 -12.5q-14 0 -15 37q0 88 111 123q45 14 100.5 19t124.5 1q6 63 6 119q0 199 -71 307q-68 100 -191 101q-149 -1 -225 -148q-74 150 -225 150q-297 0 -297 -549z M225 543q1 409 142 409t141 -409q0 -416 -141 -416t-142 416z" />
<glyph unicode="&#x178;" horiz-adv-x="983" d="M37 1640q0 6 51 -36q51 -41 76 -123l112 -369q37 -121 37 -168q0 -12 -4 -24q-23 -37 -51 -31h-31t6 2q-10 0 -10 -17q0 -35 43 -55q27 -12 52.5 -24.5t52.5 -22.5q10 -16 10 -145v-480q0 -100 -72 -118q-35 -16 -35 -21q0 -8 45 -8h316q45 0 45 8q0 10 -35 21 q-70 20 -70 118v568l259 778q20 61 79 109q53 41 54 38q0 10 -19 11h-370q-27 0 -27 -11q0 -2 41 -30q43 -29 43 -78q0 -23 -8 -47l-125 -459l-123 467q-6 20 -6 39q0 51 43 82q45 31 45 26q0 10 -35 11h-383q-6 -4 -6 -11zM238 1907q0 -39 29.5 -68t70.5 -29t68.5 29 t27.5 68q0 41 -27.5 69.5t-68.5 28.5t-70.5 -28.5t-29.5 -69.5zM578 1907q0 -39 28.5 -68t67.5 -29q43 0 72.5 28t29.5 69t-29.5 69.5t-72.5 28.5q-41 0 -68.5 -28.5t-27.5 -69.5z" />
<glyph unicode="&#x2c6;" horiz-adv-x="688" d="M61 1219q133 14 162 24q74 25 148 98q119 -125 352 -124q-201 61 -291 219h-110q-57 -86 -107 -127q-23 -20 -61.5 -42t-92.5 -48z" />
<glyph unicode="&#x2dc;" horiz-adv-x="874" d="M207 1303q0 -80 57 -80q41 0 41 39q0 33 -29 55q8 12 25 12q14 0 92 -57q82 -55 154 -55q45 0 86 49q39 47 39 102q0 39 -20.5 59.5t-37.5 20.5q-35 -4 -34 -41q-1 -39 34 -43q10 -23 -26 -23q-31 0 -109 53.5t-135 53.5q-29 0 -53.5 -12.5t-43 -33t-29.5 -47t-11 -52.5z " />
<glyph unicode="&#x2000;" horiz-adv-x="1039" />
<glyph unicode="&#x2001;" horiz-adv-x="2079" />
<glyph unicode="&#x2002;" horiz-adv-x="1039" />
<glyph unicode="&#x2003;" horiz-adv-x="2079" />
<glyph unicode="&#x2004;" horiz-adv-x="693" />
<glyph unicode="&#x2005;" horiz-adv-x="519" />
<glyph unicode="&#x2006;" horiz-adv-x="346" />
<glyph unicode="&#x2007;" horiz-adv-x="346" />
<glyph unicode="&#x2008;" horiz-adv-x="259" />
<glyph unicode="&#x2009;" horiz-adv-x="415" />
<glyph unicode="&#x200a;" horiz-adv-x="115" />
<glyph unicode="&#x2010;" horiz-adv-x="522" d="M39 565h403v86h-403v-86z" />
<glyph unicode="&#x2011;" horiz-adv-x="522" d="M39 565h403v86h-403v-86z" />
<glyph unicode="&#x2012;" horiz-adv-x="522" d="M39 565h403v86h-403v-86z" />
<glyph unicode="&#x2013;" horiz-adv-x="968" d="M70 805h848v90h-848v-90z" />
<glyph unicode="&#x2014;" horiz-adv-x="1159" d="M70 805h1040v90h-1040v-90z" />
<glyph unicode="&#x2018;" horiz-adv-x="356" d="M70 1237q0 -195 129 -195q106 0 106 158q0 109 -115 180q12 82 41 138q20 37 86 106l-16 23q-231 -133 -231 -410z" />
<glyph unicode="&#x2019;" horiz-adv-x="356" d="M55 1069l19 -20q231 129 231 407q0 195 -131 195q-104 0 -104 -158q0 -102 114 -180q-14 -84 -43 -137q-20 -37 -86 -107z" />
<glyph unicode="&#x201a;" horiz-adv-x="356" d="M55 -242l19 -20q231 129 231 405q0 195 -131 195q-104 0 -104 -158q0 -102 114 -180q-16 -84 -43 -135q-20 -37 -86 -107z" />
<glyph unicode="&#x201c;" horiz-adv-x="702" d="M70 1239q0 -193 129 -192q106 0 106 157q0 106 -115 178q12 82 41 138q20 37 86 106l-16 23q-231 -133 -231 -410zM416 1239q0 -193 129 -192q109 0 108 157q0 106 -116 178q12 82 41 138q20 37 86 106l-17 23q-231 -133 -231 -410z" />
<glyph unicode="&#x201d;" horiz-adv-x="702" d="M55 1065l19 -23q231 133 231 410q0 195 -131 195q-104 0 -104 -158q0 -104 114 -182q-16 -86 -43 -136q-20 -37 -86 -106zM403 1065l17 -23q233 131 233 410q0 195 -131 195q-106 0 -106 -158q0 -104 114 -182q-8 -43 -17 -77t-24 -59q-10 -20 -31.5 -46.5t-54.5 -59.5z " />
<glyph unicode="&#x201e;" horiz-adv-x="702" d="M55 -246l19 -22q231 133 231 407q0 195 -131 195q-104 0 -104 -158q0 -102 114 -180q-16 -86 -43 -135q-20 -37 -86 -107zM403 -246l17 -22q233 131 233 407q0 195 -131 195q-106 0 -106 -158q0 -106 114 -180q-8 -43 -17 -77t-24 -58q-10 -20 -31.5 -47t-54.5 -60z" />
<glyph unicode="&#x2022;" horiz-adv-x="356" d="M70 659q0 -166 116 -165q119 0 119 165q0 160 -119 160q-117 0 -116 -160z" />
<glyph unicode="&#x2026;" horiz-adv-x="1069" d="M61 166q0 -86 34 -132t85 -46t85 46t34 132q0 176 -119 176t-119 -176zM418 166q0 -86 33.5 -132t85.5 -46q51 0 84.5 46t33.5 132q1 176 -118 176t-119 -176zM774 166q0 -86 34 -132t85 -46t85 46t34 132q0 176 -119 176t-119 -176z" />
<glyph unicode="&#x202f;" horiz-adv-x="415" />
<glyph unicode="&#x2039;" horiz-adv-x="331" d="M70 731l110 -262l82 37l-98 229l119 228l-78 43z" />
<glyph unicode="&#x203a;" horiz-adv-x="331" d="M70 512l77 -43l136 274l-111 263l-82 -37l98 -230z" />
<glyph unicode="&#x205f;" horiz-adv-x="519" />
<glyph unicode="&#x2122;" horiz-adv-x="1257" d="M66 1651q70 -201 59 -269q-4 -10 -14 -10q-31 0 -31 -24q0 -25 31 -25q23 0 39 33t16 84v16q0 61 20.5 103.5t53.5 42.5t32 -58v-205q0 -70 -49 -69q-14 0 -14 2q0 -31 31 -45q33 -14 32 -47v-281q0 -47 -36 -61q-12 0 -21 -9q0 -4 25 -4h159q23 0 23 4q-6 8 -19 9 q-36 14 -36 61v635q0 68 32 68q31 0 54 -43q27 -51 26 -134v-20q0 -94 47 -94q27 0 25 24q0 25 -29 25q-2 8 -3 16t-1 19q0 74 70 256h-522zM629 1272q0 -31 30 -45q33 -14 33 -47v-281q0 -45 -35 -61q-12 0 -20 -9q0 -4 25 -4h147q23 0 22 4q-2 8 -16 9q-35 16 -35 61v561 l127 -637h37l121 658v-582q0 -45 -35 -61q-10 0 -18 -9q0 -4 22 -4h148q25 0 24 4q-6 8 -18 9q-35 16 -35 61v678q0 47 35 59q8 0 18 11q0 4 -24 4h-158q-35 0 -39 -4q16 -20 21 -31q2 -4 -5 -37l-73 -385l-80 377q-12 55 26 76q-4 4 -24 4h-188q-25 0 -25 -4q6 -10 20 -11 q35 -12 35 -59v-238q0 -70 -47 -69q-16 0 -16 2z" />
<glyph unicode="&#x25fc;" horiz-adv-x="1075" d="M0 0v1075h1075v-1075h-1075z" />
</font>
</defs>
</svg>
